<svg width="18" height="18" viewBox="0 0 18 18" fill="none" xmlns="http://www.w3.org/2000/svg">
<path d="M10.6395 13.8845C10.7557 14.1411 10.8188 14.4259 10.8188 14.7202C10.8188 15.4096 10.4722 16.0467 9.90952 16.3915C9.34683 16.7362 8.65356 16.7362 8.09087 16.3915C7.52818 16.0467 7.18154 15.4096 7.18154 14.7202C7.18154 14.4259 7.24471 14.1411 7.36088 13.8845H10.6395Z" stroke="#1A1E21" stroke-linecap="round"/>
<path d="M8.90239 2.74273C7.78848 2.74273 6.7202 3.21227 5.93255 4.04807L5.76785 4.22283C4.98019 5.05863 4.5377 6.19222 4.5377 7.37422V8.19262C4.5377 9.697 3.9745 11.1398 2.972 12.2035C2.79797 12.3882 2.7002 12.6387 2.7002 12.8998C2.7002 13.4437 3.11567 13.8845 3.62818 13.8845H14.3722C14.8847 13.8845 15.3002 13.4437 15.3002 12.8998C15.3002 12.6387 15.2024 12.3882 15.0284 12.2035C14.0259 11.1398 13.4627 9.697 13.4627 8.19262V7.37422C13.4627 6.19222 13.0202 5.05863 12.2325 4.22284L12.0678 4.04807C11.2802 3.21227 10.2119 2.74273 9.098 2.74273H8.90239Z" stroke="#1A1E21" stroke-linecap="round"/>
<path d="M8.60645 2.74273H9.39395C9.46643 2.74273 9.5252 2.68037 9.5252 2.60345V1.90709C9.5252 1.59942 9.29015 1.35 9.0002 1.35C8.71025 1.35 8.4752 1.59942 8.4752 1.90709V2.60345C8.4752 2.68037 8.53396 2.74273 8.60645 2.74273Z" stroke="#1A1E21" stroke-linecap="round"/>
</svg>
