<svg width="20" height="20" viewBox="0 0 20 20" fill="none" xmlns="http://www.w3.org/2000/svg">
<path d="M5.125 14.9828C4.25025 14.9828 3.53694 15.7308 3.50139 16.668C3.50133 16.6695 3.5 16.6696 3.5 16.6681V3.25862C3.5 2.28736 4.22754 1.5 5.125 1.5H16.2347C16.3812 1.5 16.5 1.62855 16.5 1.78712V14.9095C16.5 14.95 16.4697 14.9828 16.4323 14.9828H5.125ZM5.125 14.9828C4.22754 14.9828 3.5 15.7701 3.5 16.7414C3.5 17.7126 4.22754 18.5 5.125 18.5H16.4323C16.4697 18.5 16.5 18.4672 16.5 18.4267V18.2943C16.5 18.1268 16.4299 17.9707 16.3309 17.842C16.0982 17.5397 15.9583 17.1509 15.9583 16.7267C15.9583 16.3026 16.0982 15.9138 16.3309 15.6115C16.4299 15.4827 16.5 15.3266 16.5 15.1591V15.0011C16.5 14.991 16.4924 14.9828 16.4831 14.9828H5.125Z" stroke="#717180" stroke-linecap="round" stroke-linejoin="round"/>
</svg>
