<svg width="20" height="20" viewBox="0 0 20 20" fill="none" xmlns="http://www.w3.org/2000/svg">
<path d="M2.72771 13.5813L1.22964 13.3358C1.07866 12.6917 1 12.0257 1 11.3487C1 8.18737 2.71539 5.26617 5.5 3.6855C8.28461 2.10483 11.7154 2.10483 14.5 3.6855C17.2846 5.26617 19 8.18737 19 11.3487C19 12.0129 18.9243 12.6664 18.7789 13.2991L17.2719 13.5461M13.1662 9.83679C13.0317 9.83679 12.9226 9.94401 12.9226 10.0763V17.2605C12.9226 17.3928 13.0317 17.5 13.1662 17.5H14.6276C14.7621 17.5 14.8712 17.3928 14.8712 17.2605C14.8712 17.0665 14.9765 16.8872 15.1474 16.7902L16.6224 15.9529C17.0243 15.7247 17.2719 15.3031 17.2719 14.8468V12.49C17.2719 12.0337 17.0243 11.612 16.6224 11.3839L15.1474 10.5466C14.9765 10.4496 14.8712 10.2703 14.8712 10.0763C14.8712 9.94401 14.7621 9.83679 14.6276 9.83679H13.1662ZM6.83338 17.5C6.9679 17.5 7.07695 17.3928 7.07695 17.2605V10.0763C7.07695 9.94401 6.9679 9.83679 6.83338 9.83679H5.37196C5.23744 9.83679 5.12839 9.94401 5.12839 10.0763C5.12839 10.2703 5.0231 10.4496 4.85219 10.5466L3.3772 11.3839C2.97528 11.612 2.72768 12.0337 2.72768 12.49V14.8468C2.72768 15.3031 2.97528 15.7247 3.3772 15.9529L4.85218 16.7902C5.0231 16.8872 5.12839 17.0665 5.12839 17.2605C5.12839 17.3928 5.23744 17.5 5.37196 17.5H6.83338Z" stroke="#717180" stroke-linecap="square"/>
</svg>
