<svg width="152" height="36" viewBox="0 0 152 36" fill="none" xmlns="http://www.w3.org/2000/svg">
<path d="M62.7835 25.6713L62.7574 13.3701L56.754 23.5504H55.2401L49.2366 13.5292V25.6713H46V7.11347H48.7929L56.0492 19.4146L63.175 7.11347H65.9679L65.994 25.6713H62.7835Z" fill="#1A1E21"/>
<path d="M83.667 11.5143L77.1415 26.8112C76.5325 28.3489 75.7929 29.427 74.9229 30.0456C74.0528 30.6819 73 31 71.7646 31C71.0685 31 70.3812 30.8851 69.7025 30.6554C69.0239 30.4256 68.467 30.1075 68.032 29.701L69.3371 27.2619C69.6503 27.5624 70.0157 27.801 70.4334 27.9777C70.8684 28.1545 71.3034 28.2428 71.7385 28.2428C72.3127 28.2428 72.7825 28.0926 73.148 27.7922C73.5308 27.4917 73.8788 26.988 74.192 26.281L74.4269 25.7243L68.3452 11.5143H71.7385L76.1236 21.9862L80.5348 11.5143H83.667Z" fill="#1A1E21"/>
<path d="M94.349 25.9364C92.5044 25.9364 90.8339 25.5299 89.3374 24.7169C87.8583 23.8862 86.6924 22.7462 85.8398 21.2969C85.0045 19.8476 84.5869 18.2128 84.5869 16.3924C84.5869 14.5719 85.0132 12.9371 85.8659 11.4878C86.7185 10.0385 87.8844 8.90739 89.3635 8.09438C90.86 7.2637 92.5305 6.84836 94.3751 6.84836C95.8716 6.84836 97.2376 7.11347 98.4731 7.64369C99.7086 8.17391 100.753 8.94274 101.605 9.95016L99.4127 12.0445C98.0902 10.5953 96.4632 9.87063 94.5317 9.87063C93.2788 9.87063 92.1564 10.1534 91.1646 10.719C90.1727 11.2669 89.3983 12.0357 88.8415 13.0255C88.2846 14.0152 88.0062 15.1375 88.0062 16.3924C88.0062 17.6472 88.2846 18.7695 88.8415 19.7593C89.3983 20.749 90.1727 21.5267 91.1646 22.0923C92.1564 22.6402 93.2788 22.9141 94.5317 22.9141C96.4632 22.9141 98.0902 22.1806 99.4127 20.7137L101.605 22.8346C100.753 23.842 99.6999 24.6108 98.447 25.141C97.2115 25.6713 95.8455 25.9364 94.349 25.9364Z" fill="#1A1E21"/>
<path d="M104.543 6H107.806V25.6713H104.543V6Z" fill="#1A1E21"/>
<path d="M117.413 11.3552C119.467 11.3552 121.033 11.859 122.112 12.8664C123.208 13.8561 123.756 15.3584 123.756 17.3733V25.6713H120.676V23.948C120.276 24.5666 119.701 25.0438 118.953 25.3796C118.222 25.6978 117.335 25.8568 116.291 25.8568C115.247 25.8568 114.333 25.6801 113.55 25.3266C112.767 24.9555 112.158 24.4517 111.723 23.8155C111.305 23.1615 111.097 22.4281 111.097 21.6151C111.097 20.3425 111.558 19.3263 112.48 18.5663C113.42 17.7886 114.89 17.3998 116.891 17.3998H120.493V17.1877C120.493 16.1979 120.197 15.438 119.606 14.9077C119.032 14.3775 118.17 14.1124 117.022 14.1124C116.239 14.1124 115.464 14.2361 114.699 14.4836C113.95 14.731 113.315 15.0756 112.793 15.5175L111.514 13.105C112.245 12.5394 113.124 12.1064 114.15 11.8059C115.177 11.5055 116.265 11.3552 117.413 11.3552ZM116.969 23.4443C117.787 23.4443 118.509 23.2587 119.136 22.8876C119.78 22.4988 120.232 21.9509 120.493 21.2439V19.6002H117.126C115.247 19.6002 114.307 20.2276 114.307 21.4825C114.307 22.0834 114.542 22.5606 115.012 22.9141C115.482 23.2676 116.134 23.4443 116.969 23.4443Z" fill="#1A1E21"/>
<path d="M132.25 25.8568C131.119 25.8568 130.014 25.7066 128.935 25.4062C127.856 25.1057 126.995 24.7257 126.351 24.2662L127.604 21.7476C128.23 22.1718 128.979 22.5164 129.849 22.7815C130.736 23.029 131.606 23.1527 132.459 23.1527C134.408 23.1527 135.382 22.6313 135.382 21.5885C135.382 21.0937 135.13 20.749 134.625 20.5546C134.138 20.3602 133.346 20.1746 132.25 19.9979C131.102 19.8211 130.162 19.6179 129.431 19.3881C128.718 19.1584 128.091 18.7607 127.552 18.1951C127.03 17.6119 126.769 16.8077 126.769 15.7826C126.769 14.4394 127.317 13.3701 128.413 12.5748C129.527 11.7618 131.023 11.3552 132.903 11.3552C133.86 11.3552 134.817 11.4701 135.774 11.6999C136.731 11.912 137.514 12.2036 138.123 12.5748L136.87 15.0933C135.687 14.3864 134.356 14.0329 132.877 14.0329C131.919 14.0329 131.189 14.1831 130.684 14.4836C130.197 14.7663 129.953 15.1463 129.953 15.6235C129.953 16.1538 130.214 16.5338 130.736 16.7635C131.276 16.9756 132.102 17.1789 133.216 17.3733C134.33 17.55 135.243 17.7533 135.957 17.983C136.67 18.2128 137.279 18.6016 137.784 19.1495C138.306 19.6974 138.567 20.4751 138.567 21.4825C138.567 22.8081 138.001 23.8685 136.87 24.6638C135.739 25.4592 134.199 25.8568 132.25 25.8568Z" fill="#1A1E21"/>
<path d="M145.683 25.8568C144.552 25.8568 143.447 25.7066 142.368 25.4062C141.29 25.1057 140.428 24.7257 139.784 24.2662L141.037 21.7476C141.664 22.1718 142.412 22.5164 143.282 22.7815C144.169 23.029 145.04 23.1527 145.892 23.1527C147.841 23.1527 148.816 22.6313 148.816 21.5885C148.816 21.0937 148.563 20.749 148.059 20.5546C147.571 20.3602 146.78 20.1746 145.683 19.9979C144.535 19.8211 143.595 19.6179 142.864 19.3881C142.151 19.1584 141.524 18.7607 140.985 18.1951C140.463 17.6119 140.202 16.8077 140.202 15.7826C140.202 14.4394 140.75 13.3701 141.846 12.5748C142.96 11.7618 144.457 11.3552 146.336 11.3552C147.293 11.3552 148.25 11.4701 149.207 11.6999C150.164 11.912 150.947 12.2036 151.556 12.5748L150.303 15.0933C149.12 14.3864 147.789 14.0329 146.31 14.0329C145.353 14.0329 144.622 14.1831 144.117 14.4836C143.63 14.7663 143.386 15.1463 143.386 15.6235C143.386 16.1538 143.647 16.5338 144.169 16.7635C144.709 16.9756 145.535 17.1789 146.649 17.3733C147.763 17.55 148.676 17.7533 149.39 17.983C150.103 18.2128 150.712 18.6016 151.217 19.1495C151.739 19.6974 152 20.4751 152 21.4825C152 22.8081 151.434 23.8685 150.303 24.6638C149.172 25.4592 147.632 25.8568 145.683 25.8568Z" fill="#1A1E21"/>
<path d="M8.2962 16.0265L17.8572 19.3536C17.95 19.3859 18.0504 19.3859 18.1432 19.3536L32.991 14.1867C33.4033 14.0433 33.4033 13.4345 32.991 13.2911L18.1432 8.12422C18.0504 8.09192 17.95 8.09192 17.8572 8.12422L3.00937 13.2911C2.59714 13.4345 2.59714 14.0433 3.00937 14.1867L8.2962 16.0265Z" fill="url(#paint0_linear)"/>
<path d="M9.08895 21.972V19.039L17.0708 21.8166C17.6741 22.0265 18.3263 22.0265 18.9296 21.8166L27.1753 18.9472V21.972C27.1753 23.7721 25.9582 25.3219 24.2674 25.675L18.8415 26.8079C18.3732 26.9056 17.891 26.9056 17.4227 26.8079L11.9968 25.675C10.306 25.3219 9.08895 23.7721 9.08895 21.972Z" fill="url(#paint1_linear)"/>
<defs>
<linearGradient id="paint0_linear" x1="2.7002" y1="18" x2="33.3002" y2="18" gradientUnits="userSpaceOnUse">
<stop stop-color="#34BCF6"/>
<stop offset="1" stop-color="#63DDF8"/>
</linearGradient>
<linearGradient id="paint1_linear" x1="2.7002" y1="18" x2="33.3002" y2="18" gradientUnits="userSpaceOnUse">
<stop stop-color="#34BCF6"/>
<stop offset="1" stop-color="#63DDF8"/>
</linearGradient>
</defs>
</svg>
