<svg width="196" height="119" viewBox="0 0 196 119" fill="none" xmlns="http://www.w3.org/2000/svg">
<path d="M116.64 104.934H78.7772C77.505 104.934 76.4634 103.889 76.4634 102.614C76.4634 101.338 77.505 100.293 78.7772 100.293H116.642C117.914 100.293 118.956 101.338 118.956 102.614C118.956 103.889 117.914 104.934 116.64 104.934Z" fill="#978CFF"/>
<path d="M104.803 104.934H90.6141C89.6212 104.934 88.8086 104.119 88.8086 103.123V86.1515C88.8086 85.1558 89.6212 84.3409 90.6141 84.3409H104.803C105.796 84.3409 106.608 85.1558 106.608 86.1515V103.123C106.608 104.119 105.796 104.934 104.803 104.934Z" fill="#978CFF"/>
<path d="M163.848 90.5639H31.5698C28.8356 90.5639 26.5986 88.3207 26.5986 85.5789V4.98501C26.5986 2.24318 28.8356 0 31.5698 0H163.848C166.582 0 168.819 2.24318 168.819 4.98501V85.5789C168.821 88.3207 166.582 90.5639 163.848 90.5639Z" fill="#A7ADFF"/>
<path d="M33.3918 2.10794C30.9306 2.10794 28.918 4.12617 28.918 6.59429V35.5731C43.0015 24.2345 57.2874 13.1004 71.716 2.10794L33.3918 2.10794Z" fill="#EFF0FC"/>
<path d="M161.481 2.10794H148.699H71.715C57.2864 13.1004 43.0005 24.2345 28.917 35.5731V65.9975V76.9507C28.917 79.4188 30.9312 81.4371 33.3908 81.4371H161.479C163.94 81.4371 165.953 79.4173 165.953 76.9507V6.59429C165.955 4.12617 163.94 2.10794 161.481 2.10794Z" fill="#E3E5FC"/>
<path d="M97.4363 86.6549C98.119 86.6549 98.6724 86.0999 98.6724 85.4153C98.6724 84.7307 98.119 84.1757 97.4363 84.1757C96.7536 84.1757 96.2002 84.7307 96.2002 85.4153C96.2002 86.0999 96.7536 86.6549 97.4363 86.6549Z" fill="#4B369D"/>
<path d="M9.4797 73.3311C9.31638 73.3311 9.18604 73.1989 9.18604 73.0369V72.1529C9.18604 71.9893 9.31795 71.8587 9.4797 71.8587C9.64145 71.8587 9.77336 71.9908 9.77336 72.1529V73.0369C9.77336 73.1989 9.64302 73.3311 9.4797 73.3311Z" fill="#4B369D"/>
<path fill-rule="evenodd" clip-rule="evenodd" d="M18.2023 30.5944C18.2023 30.7564 18.3341 30.8869 18.4957 30.8869C18.4963 30.8869 18.4967 30.8869 18.4971 30.8868C18.4975 30.8867 18.4979 30.8863 18.4988 30.8854C19.1137 30.8791 19.713 30.8775 20.2887 30.8775C20.4502 30.8775 20.582 30.7469 20.582 30.5833C20.582 30.4213 20.4518 30.2892 20.2887 30.2892C19.7114 30.2892 19.1106 30.2923 18.4941 30.297C18.331 30.2986 18.2008 30.4323 18.2023 30.5944ZM23.8702 30.9012H23.8655C23.329 30.8933 22.7282 30.8886 22.0756 30.8839C21.9125 30.8823 21.7823 30.7501 21.7839 30.5881C21.7854 30.4261 21.9376 30.3097 22.0788 30.2955C22.7313 30.3003 23.3353 30.305 23.8733 30.3128C24.0349 30.3144 24.1651 30.4481 24.1635 30.6117C24.162 30.7722 24.0318 30.9012 23.8702 30.9012ZM14.6199 30.6557C14.6231 30.8161 14.7548 30.9436 14.9133 30.9436C14.9164 30.9436 14.918 30.9436 14.9227 30.942C15.5235 30.9263 16.1211 30.9137 16.711 30.9042C16.8725 30.9027 17.0027 30.769 16.9996 30.6054C16.998 30.4433 16.8914 30.3206 16.7016 30.3159L16.6582 30.3167C16.0794 30.3275 15.4947 30.3383 14.907 30.3537C14.7439 30.3584 14.6152 30.4937 14.6199 30.6557ZM11.4905 31.8067C11.3948 31.8067 11.2991 31.7596 11.2427 31.6715C11.1548 31.5346 11.194 31.3521 11.3305 31.264C11.8309 30.94 12.4176 30.6993 13.0717 30.5499C13.227 30.5106 13.387 30.6128 13.4231 30.7717C13.4592 30.9306 13.3604 31.0879 13.2019 31.124C12.6137 31.2578 12.0913 31.4717 11.649 31.7596C11.6003 31.791 11.5454 31.8067 11.4905 31.8067ZM9.51891 34.7252C9.5393 34.73 9.55969 34.7315 9.58008 34.7315C9.71499 34.7315 9.83735 34.6356 9.86872 34.5003C9.99264 33.9135 10.2013 33.3881 10.4883 32.9367C10.5762 32.7983 10.5354 32.6174 10.3989 32.5293C10.2625 32.4412 10.0805 32.4821 9.99264 32.6189C9.66793 33.1286 9.43263 33.7201 9.29302 34.376C9.25851 34.5349 9.36047 34.6906 9.51891 34.7252ZM9.47983 38.3149C9.31651 38.3149 9.18617 38.1827 9.18617 38.0207V36.5326C9.18303 36.5263 9.1689 36.4162 9.1579 36.2447C9.14691 36.0827 9.27097 35.9427 9.43272 35.9317C9.5929 35.9223 9.73423 36.045 9.74523 36.207C9.75374 36.3374 9.76414 36.4262 9.7684 36.4626C9.76964 36.4732 9.77035 36.4793 9.77035 36.4807L9.77349 38.0207C9.77349 38.1827 9.64315 38.3149 9.47983 38.3149ZM9.18606 41.6136C9.18606 41.7756 9.3164 41.9077 9.47972 41.9077C9.64304 41.9077 9.77338 41.7756 9.77338 41.612V39.8156C9.77338 39.6536 9.64147 39.5214 9.47972 39.5214C9.31797 39.5214 9.18606 39.652 9.18606 39.8156V41.6136ZM9.47972 45.5006C9.3164 45.5006 9.18606 45.3685 9.18606 45.2065V43.41C9.18606 43.2464 9.31797 43.1159 9.47972 43.1159C9.64147 43.1159 9.77338 43.248 9.77338 43.41V45.2065C9.77338 45.3685 9.64304 45.5006 9.47972 45.5006ZM9.18606 48.7993C9.18606 48.9614 9.3164 49.0935 9.47972 49.0935C9.64304 49.0935 9.77338 48.9614 9.77338 48.7993V47.0029C9.77338 46.8409 9.64147 46.7088 9.47972 46.7088C9.31797 46.7088 9.18606 46.8393 9.18606 47.0029V48.7993ZM9.47972 52.6863C9.3164 52.6863 9.18606 52.5542 9.18606 52.3922V50.5958C9.18606 50.4322 9.31797 50.3016 9.47972 50.3016C9.64147 50.3016 9.77338 50.4337 9.77338 50.5958V52.3922C9.77338 52.5542 9.64304 52.6863 9.47972 52.6863ZM9.18606 55.9851C9.18606 56.1471 9.3164 56.2792 9.47972 56.2792C9.64304 56.2792 9.77338 56.1471 9.77338 55.9851V54.1886C9.77338 54.0266 9.64147 53.8945 9.47972 53.8945C9.31797 53.8945 9.18606 54.025 9.18606 54.1886V55.9851ZM9.47972 59.872C9.3164 59.872 9.18606 59.7399 9.18606 59.5779V57.7799C9.18606 57.6163 9.31797 57.4857 9.47972 57.4857C9.64147 57.4857 9.77338 57.6179 9.77338 57.7799V59.5763C9.77338 59.7399 9.64304 59.872 9.47972 59.872ZM9.18606 63.1707C9.18606 63.3328 9.3164 63.4649 9.47972 63.4649C9.64304 63.4649 9.77338 63.3328 9.77338 63.1707V61.3743C9.77338 61.2123 9.64147 61.0802 9.47972 61.0802C9.31797 61.0802 9.18606 61.2107 9.18606 61.3743V63.1707ZM9.47972 67.0577C9.3164 67.0577 9.18606 66.9256 9.18606 66.7636V64.9672C9.18606 64.8036 9.31797 64.673 9.47972 64.673C9.64147 64.673 9.77338 64.8051 9.77338 64.9672V66.7636C9.77338 66.9256 9.64304 67.0577 9.47972 67.0577ZM9.47972 70.6506C9.3164 70.6506 9.18606 70.5185 9.18606 70.3565V68.5601C9.18606 68.3965 9.31797 68.2659 9.47972 68.2659C9.64147 68.2659 9.77338 68.398 9.77338 68.5601V70.3565C9.77338 70.5185 9.64304 70.6506 9.47972 70.6506Z" fill="#4B369D"/>
<path d="M26.5539 30.9514C26.5508 30.9514 26.5492 30.9514 26.5461 30.9514C26.5461 30.9514 26.2292 30.9435 25.6676 30.931C25.506 30.9278 25.3758 30.7925 25.379 30.6305C25.3821 30.4685 25.5327 30.3536 25.6786 30.3411C26.2417 30.3521 26.5602 30.3615 26.5602 30.3615C26.7217 30.3662 26.8504 30.5015 26.8457 30.6635C26.8425 30.824 26.7123 30.9514 26.5539 30.9514Z" fill="#4B369D"/>
<path d="M99.2171 105.819C99.057 105.819 98.9266 105.692 98.9235 105.532C98.9109 104.973 98.9015 104.652 98.9015 104.652C98.8968 104.49 99.024 104.353 99.1873 104.349C99.3381 104.35 99.4857 104.471 99.4904 104.635C99.4904 104.635 99.4998 104.957 99.5124 105.52C99.5155 105.683 99.3867 105.818 99.225 105.821C99.2219 105.819 99.2187 105.819 99.2171 105.819Z" fill="#4B369D"/>
<path fill-rule="evenodd" clip-rule="evenodd" d="M98.9657 109.025C98.9657 109.189 99.0976 109.319 99.2594 109.319C99.4227 109.319 99.5546 109.186 99.5546 109.022C99.5515 108.387 99.5468 107.797 99.5405 107.268C99.5374 107.106 99.3819 106.968 99.2421 106.977C99.0804 106.98 98.95 107.114 98.9516 107.276C98.9579 107.803 98.9642 108.391 98.9657 109.025ZM99.2375 112.821H99.2328C99.071 112.818 98.9407 112.684 98.9438 112.522C98.9533 111.926 98.9595 111.339 98.9627 110.775C98.9643 110.612 99.0946 110.482 99.2563 110.482H99.2579C99.4212 110.484 99.5516 110.616 99.55 110.778C99.5469 111.346 99.5406 111.932 99.5312 112.532C99.5296 112.692 99.3993 112.821 99.2375 112.821ZM98.8421 116.279C98.8719 116.29 98.9033 116.294 98.9347 116.294C99.0572 116.294 99.1719 116.216 99.2143 116.091C99.3792 115.597 99.4718 115.039 99.4907 114.43L99.4954 114.286C99.5001 114.122 99.3713 113.987 99.2096 113.982C99.0588 113.979 98.9112 114.106 98.9065 114.268L98.9018 114.413C98.8861 114.964 98.8028 115.465 98.6568 115.906C98.605 116.06 98.6882 116.227 98.8421 116.279ZM32.5516 117.205C32.4354 117.205 32.3255 117.136 32.28 117.023C32.2172 116.869 32.1732 116.705 32.1496 116.535L32.1465 115.176C32.1465 115.012 32.2784 114.882 32.4401 114.882C32.6019 114.882 32.7338 115.014 32.7338 115.176V116.494C32.7479 116.574 32.7778 116.689 32.8217 116.798C32.883 116.949 32.8108 117.12 32.6616 117.182C32.627 117.197 32.5893 117.205 32.5516 117.205ZM96.2788 118.479C96.3227 118.6 96.4357 118.676 96.5565 118.676C96.5878 118.676 96.6208 118.67 96.6537 118.659C97.2796 118.437 97.8145 118.11 98.2412 117.686C98.3557 117.572 98.3573 117.386 98.2428 117.27C98.1283 117.155 97.9432 117.153 97.8271 117.268C97.4616 117.63 97.002 117.91 96.4576 118.103C96.3055 118.157 96.2239 118.325 96.2788 118.479ZM35.4341 118.845L35.434 118.845L35.4301 118.844C34.7477 118.737 34.1579 118.567 33.6748 118.343C33.5273 118.273 33.4646 118.099 33.532 117.951C33.5995 117.803 33.7736 117.74 33.9226 117.808C34.3556 118.009 34.8936 118.162 35.5211 118.261C35.6811 118.286 35.7909 118.437 35.7658 118.597C35.7423 118.744 35.6168 118.848 35.4756 118.848C35.4612 118.848 35.4482 118.846 35.4341 118.845ZM37.2199 118.965H38.9658C39.1289 118.965 39.2591 118.833 39.2591 118.671C39.2591 118.509 39.1289 118.377 38.9658 118.377H37.2199C37.0583 118.377 36.9265 118.508 36.9265 118.671C36.9265 118.833 37.0567 118.965 37.2199 118.965ZM42.459 118.965H40.7131C40.55 118.965 40.4198 118.833 40.4198 118.671C40.4198 118.508 40.5515 118.377 40.7131 118.377H42.459C42.6222 118.377 42.7524 118.509 42.7524 118.671C42.7524 118.833 42.6206 118.965 42.459 118.965ZM44.2049 118.965H45.9508C46.1124 118.965 46.2442 118.833 46.2442 118.671C46.2442 118.509 46.114 118.377 45.9508 118.377H44.2049C44.0433 118.377 43.9116 118.508 43.9116 118.671C43.9116 118.833 44.0418 118.965 44.2049 118.965ZM49.4431 118.965H47.6972C47.534 118.965 47.4038 118.833 47.4038 118.671C47.4038 118.508 47.5356 118.377 47.6972 118.377H49.4431C49.6063 118.377 49.7365 118.509 49.7365 118.671C49.7365 118.833 49.6063 118.965 49.4431 118.965ZM51.189 118.965H52.9349C53.0981 118.965 53.2298 118.833 53.2283 118.671C53.2283 118.509 53.0981 118.377 52.9349 118.377H51.189C51.0274 118.377 50.8956 118.508 50.8956 118.671C50.8956 118.833 51.0258 118.965 51.189 118.965ZM56.4277 118.965H54.6818C54.5186 118.965 54.3884 118.833 54.3884 118.671C54.3884 118.508 54.5202 118.377 54.6818 118.377H56.4277C56.5908 118.377 56.721 118.509 56.721 118.671C56.721 118.833 56.5893 118.965 56.4277 118.965ZM58.174 118.965H59.92C60.0831 118.965 60.2133 118.833 60.2133 118.671C60.2133 118.509 60.0831 118.377 59.92 118.377H58.174C58.0125 118.377 57.8807 118.508 57.8807 118.671C57.8807 118.833 58.0109 118.965 58.174 118.965ZM63.4123 118.965H61.6663C61.5032 118.965 61.373 118.833 61.373 118.671C61.373 118.508 61.5047 118.377 61.6663 118.377H63.4123C63.5754 118.377 63.7056 118.509 63.7056 118.671C63.7072 118.833 63.5754 118.965 63.4123 118.965ZM65.1591 118.965H66.905C67.0666 118.965 67.1984 118.833 67.1984 118.671C67.1984 118.509 67.0682 118.377 66.905 118.377H65.1591C64.9975 118.377 64.8657 118.508 64.8657 118.671C64.8657 118.833 64.9959 118.965 65.1591 118.965ZM70.3968 118.965H68.6509C68.4877 118.965 68.3575 118.833 68.3575 118.671C68.3575 118.508 68.4893 118.377 68.6509 118.377H70.3968C70.56 118.377 70.6902 118.509 70.6902 118.671C70.6902 118.833 70.56 118.965 70.3968 118.965ZM72.1432 118.965H73.8891C74.0522 118.965 74.184 118.833 74.1824 118.671C74.1824 118.509 74.0522 118.377 73.8891 118.377H72.1432C71.9816 118.377 71.8498 118.508 71.8498 118.671C71.8498 118.833 71.98 118.965 72.1432 118.965ZM77.3824 118.965H75.6364C75.4733 118.965 75.3431 118.833 75.3431 118.671C75.3431 118.508 75.4748 118.377 75.6364 118.377H77.3824C77.5455 118.377 77.6757 118.509 77.6757 118.671C77.6757 118.833 77.5439 118.965 77.3824 118.965ZM79.1282 118.965H80.8741C81.0357 118.965 81.1675 118.833 81.1675 118.671C81.1675 118.509 81.0373 118.377 80.8741 118.377H79.1282C78.9666 118.377 78.8349 118.508 78.8349 118.671C78.8349 118.833 78.9651 118.965 79.1282 118.965ZM84.3659 118.965H82.62C82.4569 118.965 82.3267 118.833 82.3267 118.671C82.3267 118.508 82.4584 118.377 82.62 118.377H84.3659C84.5291 118.377 84.6593 118.509 84.6593 118.671C84.6609 118.833 84.5291 118.965 84.3659 118.965ZM86.1118 118.965H87.8577C88.0209 118.965 88.1526 118.833 88.1511 118.671C88.1511 118.509 88.0209 118.377 87.8577 118.377H86.1118C85.9502 118.377 85.8185 118.508 85.8185 118.671C85.8185 118.833 85.9487 118.965 86.1118 118.965ZM91.3515 118.965H89.6056C89.4424 118.965 89.3122 118.833 89.3122 118.671C89.3122 118.508 89.444 118.377 89.6056 118.377H91.3515C91.5146 118.377 91.6448 118.509 91.6448 118.671C91.6448 118.833 91.5131 118.965 91.3515 118.965ZM94.5483 119C94.1979 119 93.954 118.973 93.8853 118.966L93.8852 118.966L93.8851 118.966L93.885 118.966L93.8846 118.966C93.8737 118.965 93.8674 118.964 93.8659 118.964L93.0988 118.967C92.9357 118.967 92.8055 118.835 92.8055 118.673C92.8055 118.509 92.9372 118.379 93.0988 118.379H93.9067L93.9224 118.38L93.9462 118.382L93.9463 118.382C94.0618 118.394 94.3862 118.426 94.8322 118.407C94.9938 118.402 95.1318 118.527 95.1381 118.689C95.1459 118.851 95.0189 118.989 94.8573 118.995C94.7459 118.998 94.6424 119 94.5483 119Z" fill="#4B369D"/>
<path d="M32.4416 113.707C32.2783 113.707 32.1479 113.575 32.1479 113.413V112.528C32.1479 112.365 32.2799 112.234 32.4416 112.234C32.6034 112.234 32.7353 112.366 32.7353 112.528V113.413C32.7368 113.575 32.6049 113.707 32.4416 113.707Z" fill="#4B369D"/>
<path d="M61.2554 37.607H27.3878C23.5367 37.607 20.3853 34.4467 20.3853 30.5849C20.3853 26.723 23.5367 23.5627 27.3878 23.5627H61.2554C65.1065 23.5627 68.258 26.723 68.258 30.5849C68.2595 34.4467 65.1081 37.607 61.2554 37.607Z" fill="#4B369D"/>
<path d="M60.3501 27.4853C60.4913 27.4712 60.634 27.4649 60.7752 27.468C62.6513 27.5073 64.1479 29.0694 64.1086 30.9523C64.0694 32.8337 62.5117 34.3328 60.634 34.2951L60.6513 33.4771C62.0788 33.507 63.2631 32.3665 63.2929 30.9366C63.3227 29.5051 62.1854 28.3175 60.7595 28.2876C60.6529 28.286 60.543 28.2892 60.4348 28.3017L60.3501 27.4853Z" fill="white"/>
<path d="M59.5342 33.8631L60.8299 34.6496L60.8613 33.1317L59.5342 33.8631Z" fill="white"/>
<path d="M59.0337 34.2354C58.8925 34.2495 58.7498 34.2558 58.6086 34.2527C56.7325 34.2134 55.236 32.6513 55.2752 30.7684C55.3144 28.887 56.8721 27.3879 58.7498 27.4256L58.7325 28.2436C57.305 28.2137 56.1207 29.3542 56.0909 30.7841C56.0611 32.2156 57.1984 33.4032 58.6243 33.4331C58.731 33.4347 58.8408 33.4315 58.949 33.419L59.0337 34.2354Z" fill="white"/>
<path d="M59.8495 27.8588L58.5553 27.0739L58.5239 28.5903L59.8495 27.8588Z" fill="white"/>
<path d="M195.692 112.956C195.488 113.058 195.17 113.117 194.704 113.117C182.177 113.115 169.655 113.112 157.126 113.147C150.852 113.164 144.577 113.118 138.302 113.132C135.134 113.139 131.965 113.162 128.796 113.214C127.212 113.241 125.627 113.276 124.043 113.32C122.878 113.353 121.464 113.568 120.355 113.082C119.977 112.917 119.619 112.695 119.469 112.286C119.445 112.19 119.439 112.093 119.45 111.993C119.572 111.147 120.867 109.725 121.375 109.025C122.418 107.586 123.485 106.021 125.356 105.522C126.445 105.232 127.591 105.237 128.722 105.244C148.54 105.244 168.357 105.354 188.174 105.415C189.416 105.418 190.95 105.602 191.814 106.554C192.913 107.762 193.88 109.071 194.77 110.427C195.302 111.237 196.586 112.511 195.692 112.956Z" fill="#978CFF"/>
<path d="M185.414 106.266H129.562C125.682 106.266 122.509 103.084 122.509 99.1935V60.4728C122.509 56.5826 125.682 53.4003 129.562 53.4003H185.414C189.293 53.4003 192.467 56.5826 192.467 60.4728V99.1919C192.467 103.084 189.293 106.266 185.414 106.266Z" fill="#A7ADFF"/>
<path d="M129.657 55.6985C126.634 55.6985 124.16 58.1793 124.16 61.2105V90.1012C142.049 79.3353 159.546 67.9589 176.441 55.7001H129.657V55.6985Z" fill="#EFF0FC"/>
<path d="M185.017 55.6985H176.443C159.547 67.9574 142.051 79.3353 124.162 90.0997V96.3447C124.162 99.376 126.636 101.857 129.659 101.857H185.019C188.042 101.857 190.515 99.376 190.515 96.3447V61.2105C190.514 58.1793 188.04 55.6985 185.017 55.6985Z" fill="#E3E5FC"/>
<path d="M161.183 103.854H156.276C156.157 103.854 156.06 103.756 156.06 103.637C156.06 103.518 156.157 103.42 156.276 103.42H161.183C161.302 103.42 161.399 103.518 161.399 103.637C161.401 103.756 161.302 103.854 161.183 103.854Z" fill="#E3E5FC"/>
<path d="M129.18 55.1763C129.45 55.1763 129.668 54.9573 129.668 54.6871C129.668 54.4169 129.45 54.1979 129.18 54.1979C128.911 54.1979 128.692 54.4169 128.692 54.6871C128.692 54.9573 128.911 55.1763 129.18 55.1763Z" fill="#E3E5FC"/>
<path d="M131.283 55.1763C131.552 55.1763 131.771 54.9573 131.771 54.6871C131.771 54.4169 131.552 54.1979 131.283 54.1979C131.013 54.1979 130.795 54.4169 130.795 54.6871C130.795 54.9573 131.013 55.1763 131.283 55.1763Z" fill="white"/>
<path d="M133.403 55.1763C133.672 55.1763 133.891 54.9573 133.891 54.6871C133.891 54.4169 133.672 54.1979 133.403 54.1979C133.133 54.1979 132.915 54.4169 132.915 54.6871C132.915 54.9573 133.133 55.1763 133.403 55.1763Z" fill="#4B369D"/>
<path d="M127.893 108.858H126.242C125.899 108.858 125.618 108.577 125.618 108.232C125.618 107.888 125.899 107.606 126.242 107.606H127.893C128.236 107.606 128.517 107.888 128.517 108.232C128.519 108.577 128.236 108.858 127.893 108.858Z" fill="#E3E5FC"/>
<path d="M132.716 108.858H131.066C130.723 108.858 130.442 108.577 130.442 108.232C130.442 107.888 130.723 107.606 131.066 107.606H132.716C133.06 107.606 133.341 107.888 133.341 108.232C133.341 108.577 133.06 108.858 132.716 108.858Z" fill="#E3E5FC"/>
<path d="M137.541 108.858H135.89C135.547 108.858 135.266 108.577 135.266 108.232C135.266 107.888 135.547 107.606 135.89 107.606H137.541C137.884 107.606 138.165 107.888 138.165 108.232C138.165 108.577 137.884 108.858 137.541 108.858Z" fill="#E3E5FC"/>
<path d="M142.364 108.858H140.714C140.37 108.858 140.089 108.577 140.089 108.232C140.089 107.888 140.37 107.606 140.714 107.606H142.364C142.707 107.606 142.988 107.888 142.988 108.232C142.988 108.577 142.707 108.858 142.364 108.858Z" fill="#E3E5FC"/>
<path d="M147.188 108.858H145.537C145.194 108.858 144.913 108.577 144.913 108.232C144.913 107.888 145.194 107.606 145.537 107.606H147.188C147.531 107.606 147.812 107.888 147.812 108.232C147.812 108.577 147.531 108.858 147.188 108.858Z" fill="#E3E5FC"/>
<path d="M152.011 108.858H150.361C150.018 108.858 149.737 108.577 149.737 108.232C149.737 107.888 150.018 107.606 150.361 107.606H152.011C152.355 107.606 152.636 107.888 152.636 108.232C152.636 108.577 152.355 108.858 152.011 108.858Z" fill="#E3E5FC"/>
<path d="M156.834 108.858H155.183C154.84 108.858 154.559 108.577 154.559 108.232C154.559 107.888 154.84 107.606 155.183 107.606H156.834C157.177 107.606 157.458 107.888 157.458 108.232C157.46 108.577 157.179 108.858 156.834 108.858Z" fill="#E3E5FC"/>
<path d="M161.657 108.858H160.007C159.663 108.858 159.382 108.577 159.382 108.232C159.382 107.888 159.663 107.606 160.007 107.606H161.657C162 107.606 162.281 107.888 162.281 108.232C162.283 108.577 162 108.858 161.657 108.858Z" fill="#E3E5FC"/>
<path d="M166.481 108.858H164.83C164.487 108.858 164.206 108.577 164.206 108.232C164.206 107.888 164.487 107.606 164.83 107.606H166.481C166.824 107.606 167.105 107.888 167.105 108.232C167.107 108.577 166.824 108.858 166.481 108.858Z" fill="#E3E5FC"/>
<path d="M171.305 108.858H169.655C169.311 108.858 169.03 108.577 169.03 108.232C169.03 107.888 169.311 107.606 169.655 107.606H171.305C171.648 107.606 171.929 107.888 171.929 108.232C171.931 108.577 171.648 108.858 171.305 108.858Z" fill="#E3E5FC"/>
<path d="M176.128 108.858H174.478C174.134 108.858 173.854 108.577 173.854 108.232C173.854 107.888 174.134 107.606 174.478 107.606H176.128C176.472 107.606 176.752 107.888 176.752 108.232C176.752 108.577 176.472 108.858 176.128 108.858Z" fill="#E3E5FC"/>
<path d="M180.952 108.858H179.302C178.958 108.858 178.677 108.577 178.677 108.232C178.677 107.888 178.958 107.606 179.302 107.606H180.952C181.295 107.606 181.576 107.888 181.576 108.232C181.576 108.577 181.295 108.858 180.952 108.858Z" fill="#E3E5FC"/>
<path d="M185.776 108.858H184.125C183.782 108.858 183.501 108.577 183.501 108.232C183.501 107.888 183.782 107.606 184.125 107.606H185.776C186.119 107.606 186.4 107.888 186.4 108.232C186.4 108.577 186.119 108.858 185.776 108.858Z" fill="#E3E5FC"/>
<path d="M185.157 63.4317H172.193C171.602 63.4317 171.119 62.9472 171.119 62.3542C171.119 61.7611 171.602 61.2766 172.193 61.2766H185.157C185.748 61.2766 186.231 61.7611 186.231 62.3542C186.231 62.9472 185.748 63.4317 185.157 63.4317Z" fill="#A7ADFF"/>
<path d="M185.157 68.3663H172.194C171.602 68.3663 171.119 67.8818 171.119 67.2888C171.119 66.6957 171.602 66.2112 172.194 66.2112H185.157C185.749 66.2112 186.232 66.6957 186.232 67.2888C186.232 67.8818 185.749 68.3663 185.157 68.3663Z" fill="#A7ADFF"/>
<path d="M51.5657 65.5523V106.724C51.5657 109.916 48.9617 112.527 45.7789 112.527H19.4079C16.2251 112.527 13.6211 109.916 13.6211 106.724V65.5523C13.6211 62.3605 16.2251 59.7493 19.4079 59.7493H45.7789C48.9617 59.7477 51.5657 62.3605 51.5657 65.5523Z" fill="#A7ADFF"/>
<path d="M15.7827 106.596C15.7827 107.086 15.8753 107.553 16.0353 107.989C16.6031 109.529 18.0761 110.636 19.7969 110.636H40.8344H45.382C47.5891 110.636 49.3962 108.818 49.3962 106.596V65.9063C49.3962 64.6714 48.8362 63.5608 47.9609 62.8184C37.6625 72.727 26.7226 81.9907 15.7827 91.256V106.596H15.7827Z" fill="#E3E5FC"/>
<path d="M40.8565 61.8666H19.7955C17.5884 61.8666 15.7812 63.685 15.7812 65.9062V72.2094V91.2559C26.7212 81.9922 37.6611 72.7269 47.9594 62.8183C47.2598 62.2252 46.3609 61.8666 45.3805 61.8666H40.8565V61.8666Z" fill="#EFF0FC"/>
<path d="M32.5924 112.088C33.0004 112.088 33.3312 111.756 33.3312 111.347C33.3312 110.938 33.0004 110.606 32.5924 110.606C32.1843 110.606 31.8535 110.938 31.8535 111.347C31.8535 111.756 32.1843 112.088 32.5924 112.088Z" fill="#4B369D"/>
<path d="M43.7377 70.0873H30.7742C30.1829 70.0873 29.6997 69.6028 29.6997 69.0098C29.6997 68.4168 30.1829 67.9323 30.7742 67.9323H43.7377C44.3291 67.9323 44.8123 68.4168 44.8123 69.0098C44.8139 69.6028 44.3291 70.0873 43.7377 70.0873Z" fill="#A7ADFF"/>
<path d="M43.7377 75.022H30.7742C30.1829 75.022 29.6997 74.5375 29.6997 73.9444C29.6997 73.3514 30.1829 72.8669 30.7742 72.8669H43.7377C44.3291 72.8669 44.8123 73.3514 44.8123 73.9444C44.8139 74.5375 44.3291 75.022 43.7377 75.022Z" fill="#A7ADFF"/>
<path d="M16.852 73.0353H2.88928C1.30179 73.0353 0.00292969 74.3378 0.00292969 75.9298V89.974C6.15369 84.4368 12.4221 79.035 18.9603 73.965C18.4317 73.3971 17.6834 73.0353 16.852 73.0353Z" fill="#EFF0FC"/>
<path d="M18.9574 73.9666C12.4207 79.035 6.15076 84.4384 0 89.9756V102.274V110.202C0 111.794 1.29886 113.096 2.88635 113.096H16.8491C18.4366 113.096 19.7355 111.794 19.7355 110.202V75.9314C19.7355 75.1873 19.45 74.5093 18.9856 73.9949C18.9778 73.9839 18.9668 73.9761 18.9574 73.9666Z" fill="#E3E5FC"/>
<path fill-rule="evenodd" clip-rule="evenodd" d="M2.88831 73.0353H16.8511C18.4385 73.0353 19.7374 74.3378 19.7374 75.9298V110.2C19.7374 111.792 18.4385 113.095 16.8511 113.095H2.88831C1.30081 113.095 0.00195312 111.792 0.00195312 110.2V75.9298C0.00195312 74.3378 1.30081 73.0353 2.88831 73.0353ZM15.5974 109.357C17.1849 109.357 18.4838 108.055 18.4838 106.463V77.2763C18.4838 75.6844 17.1849 74.3819 15.5974 74.3819H4.13987C2.55237 74.3819 1.25351 75.6844 1.25351 77.2763V106.463C1.25351 108.055 2.55237 109.357 4.13987 109.357H15.5974Z" fill="#978CFF"/>
<path d="M11.7272 73.9518H8.00944C7.91845 73.9518 7.84473 73.878 7.84473 73.7869C7.84473 73.6958 7.91845 73.622 8.00944 73.622H11.7272C11.8182 73.622 11.8919 73.6958 11.8919 73.7869C11.8919 73.878 11.8182 73.9518 11.7272 73.9518Z" fill="#E3E5FC"/>
<path d="M9.86858 112.129C10.4343 112.129 10.8929 111.669 10.8929 111.102C10.8929 110.534 10.4343 110.074 9.86858 110.074C9.30285 110.074 8.84424 110.534 8.84424 111.102C8.84424 111.669 9.30285 112.129 9.86858 112.129Z" fill="#4B369D"/>
<path d="M16.351 100.466H3.38753C2.79614 100.466 2.31299 99.9817 2.31299 99.3887C2.31299 98.7957 2.79614 98.3112 3.38753 98.3112H16.351C16.9424 98.3112 17.4256 98.7957 17.4256 99.3887C17.4256 99.9817 16.9424 100.466 16.351 100.466Z" fill="white"/>
<path d="M16.3505 105.403H3.38704C2.79565 105.403 2.3125 104.918 2.3125 104.325C2.3125 103.732 2.79565 103.247 3.38704 103.247H16.3505C16.9419 103.247 17.4251 103.732 17.4251 104.325C17.4251 104.916 16.9419 105.403 16.3505 105.403Z" fill="white"/>
</svg>
