<svg width="72" height="141" viewBox="0 0 72 141" fill="none" xmlns="http://www.w3.org/2000/svg">
<path d="M21.9146 92.1014C19.9864 93.5481 18.0015 95.0587 16.844 97.1779C15.2623 100.071 17.629 102.453 18.5932 105.036C19.1707 106.578 19.4607 107.669 19.1401 109.31C18.869 110.695 17.108 112.159 18.1571 113.636C19.6304 115.694 22.28 114.491 23.7086 117.37C24.8778 119.726 24.4205 122.492 25.9245 124.734C27.4827 127.059 30.1347 128.88 31.1106 131.57C32.1384 134.397 29.8636 138.559 33.0035 140.541C34.6772 141.6 37.0204 140.702 38.2203 139.123C40.7427 135.801 40.7049 129.604 41.3344 125.653C41.6267 123.818 42.902 121.393 44.5875 122.16C45.6459 122.643 47.0862 130.308 49.2974 126.342C49.7312 125.563 49.6722 124.613 49.6015 123.725C49.5002 122.473 49.0806 121.062 49.2715 119.804C49.9646 115.239 51.0536 112.784 49.6416 107.98C49.4907 107.463 49.3776 106.81 49.7948 106.471C50.0141 106.294 50.3158 106.268 50.5963 106.251C52.3549 106.14 54.3893 106.256 55.3322 104.402C56.3482 102.404 53.9673 100.888 53.2931 99.2141C53.4275 99.5504 58.1398 100.907 58.9036 101.329C57.4609 97.8669 53.9862 95.1937 50.4478 94.1661" fill="#F44E4E"/>
<path d="M24.2573 108.669C24.7641 110.307 25.5232 111.789 26.5651 112.987C27.3831 113.927 28.3803 114.74 28.913 115.886C29.3704 116.868 29.4364 118.005 29.856 119.006C31.4778 122.878 34.507 118.746 35.5725 116.828C36.8926 114.458 38.1986 113.759 40.6832 113.795C40.9614 113.8 41.2725 113.788 41.4635 113.575C41.6426 113.373 41.645 113.063 41.6049 112.789C41.3857 111.264 39.7521 109.14 41.3503 107.84C41.9821 107.326 42.8048 107.172 43.5639 106.905C47.371 105.557 47.279 98.5322 47.1352 95.1605C47.081 93.8914 46.5812 92.6814 45.9 91.6325C42.1 85.7723 32.2958 85.751 27.6849 90.7138C23.9414 94.739 22.4257 102.737 24.2573 108.669Z" fill="#D7384E"/>
<path d="M71.7181 96.9766C69.6908 98.5985 54.9551 87.4511 40.5801 74.6012L56.8787 61.5596C66.077 78.5507 73.5639 95.4991 71.7181 96.9766Z" fill="#5A54FF"/>
<path d="M0.281648 96.9766C2.30895 98.5985 17.0446 87.4511 31.4197 74.6012L15.1211 61.5596C5.92275 78.5507 -1.56414 95.4991 0.281648 96.9766Z" fill="#5A54FF"/>
<path d="M13.3501 63.9604C13.3501 83.4282 23.192 94.1068 35.3322 94.1068C47.4725 94.1068 57.3144 83.4282 57.3144 63.9604C57.3144 56.1846 54.7731 44.4168 51.3385 33.0847H19.1562C15.7947 44.4168 13.3501 56.1846 13.3501 63.9604Z" fill="#A7ADFF"/>
<path d="M35.3322 0C31.3294 0 24.2079 16.0487 19.1538 33.0848H51.3361C46.1712 16.0487 38.9766 0 35.3322 0Z" fill="#5A54FF"/>
<path d="M51.6317 91.7817H19.0346C16.4721 91.7817 14.3765 89.6768 14.3765 87.103C14.3765 84.5293 16.4721 82.4243 19.0346 82.4243H51.6317C54.1942 82.4243 56.2898 84.5293 56.2898 87.103C56.2898 89.6768 54.1942 91.7817 51.6317 91.7817Z" fill="#978CFF"/>
<path d="M50.1529 94.3342H20.5118C19.814 94.3342 19.2412 93.7588 19.2412 93.058C19.2412 92.3571 19.814 91.7817 20.5118 91.7817H50.1529C50.8507 91.7817 51.4235 92.3571 51.4235 93.058C51.4235 93.7588 50.853 94.3342 50.1529 94.3342Z" fill="#5A54FF"/>
<path d="M35.3336 46.2709C28.9593 46.2709 23.7944 51.461 23.7944 57.8611C23.7944 58.2163 23.8156 58.5643 23.8463 58.91C30.6166 56.1468 37.3373 53.2913 43.9237 50.1398C41.8115 47.7697 38.7494 46.2709 35.3336 46.2709Z" fill="white"/>
<path d="M23.8457 58.91C24.3737 64.8199 29.3124 69.4513 35.333 69.4513C41.7072 69.4513 46.8721 64.2611 46.8721 57.8611C46.8721 54.8919 45.75 52.1903 43.9231 50.1398C37.3367 53.2913 30.616 56.1468 23.8457 58.91Z" fill="#E3E5FC"/>
</svg>
