<svg width="142" height="124" viewBox="0 0 142 124" fill="none" xmlns="http://www.w3.org/2000/svg">
<path d="M65.8388 124C99.3744 124 126.56 122.94 126.56 121.632C126.56 120.325 99.3744 119.264 65.8388 119.264C32.3032 119.264 5.11719 120.325 5.11719 121.632C5.11719 122.94 32.3032 124 65.8388 124Z" fill="#E3E5FC"/>
<path d="M121.481 95.9044H5.68202C2.55666 95.9044 0 93.3456 0 90.2177V5.68667C0 2.55875 2.55666 0 5.68202 0H121.481C124.606 0 127.163 2.55875 127.163 5.68667V90.2177C127.163 93.3456 124.606 95.9044 121.481 95.9044Z" fill="#A7ADFF"/>
<path d="M117.929 87.9056H8.68495C5.55959 87.9056 3.00293 85.3468 3.00293 82.2189V9.85806C3.00293 6.73013 5.55959 4.17139 8.68495 4.17139H117.929C121.054 4.17139 123.611 6.73013 123.611 9.85806V82.2189C123.612 85.3456 121.055 87.9056 117.929 87.9056Z" fill="#E3E5FC"/>
<path d="M70.2987 91.5306H61.3801C61.1628 91.5306 60.9858 91.3522 60.9858 91.136C60.9858 90.9184 61.164 90.7413 61.3801 90.7413H70.2987C70.5161 90.7413 70.6931 90.9197 70.6931 91.136C70.6931 91.3522 70.5149 91.5306 70.2987 91.5306Z" fill="#E3E5FC"/>
<path d="M6.78416 3.2215C7.27414 3.2215 7.67134 2.82397 7.67134 2.33359C7.67134 1.84321 7.27414 1.44568 6.78416 1.44568C6.29418 1.44568 5.89697 1.84321 5.89697 2.33359C5.89697 2.82397 6.29418 3.2215 6.78416 3.2215Z" fill="#E3E5FC"/>
<path d="M10.605 3.2215C11.0949 3.2215 11.4921 2.82397 11.4921 2.33359C11.4921 1.84321 11.0949 1.44568 10.605 1.44568C10.115 1.44568 9.71777 1.84321 9.71777 2.33359C9.71777 2.82397 10.115 3.2215 10.605 3.2215Z" fill="white"/>
<path d="M14.459 3.2215C14.9489 3.2215 15.3461 2.82397 15.3461 2.33359C15.3461 1.84321 14.9489 1.44568 14.459 1.44568C13.969 1.44568 13.5718 1.84321 13.5718 2.33359C13.5718 2.82397 13.969 3.2215 14.459 3.2215Z" fill="#4B369D"/>
<path d="M106.812 52.6776H85.1871C84.607 52.6776 84.1318 52.202 84.1318 51.6214C84.1318 51.0409 84.607 50.5653 85.1871 50.5653H106.812C107.392 50.5653 107.867 51.0409 107.867 51.6214C107.866 52.202 107.392 52.6776 106.812 52.6776Z" fill="white"/>
<path d="M106.811 57.5117H85.1866C84.6065 57.5117 84.1313 57.0362 84.1313 56.4556C84.1313 55.8751 84.6065 55.3995 85.1866 55.3995H106.811C107.392 55.3995 107.867 55.8751 107.867 56.4556C107.865 57.0374 107.392 57.5117 106.811 57.5117Z" fill="white"/>
<path d="M106.811 62.3472H85.1866C84.6065 62.3472 84.1313 61.8716 84.1313 61.2911C84.1313 60.7105 84.6065 60.2349 85.1866 60.2349H106.811C107.392 60.2349 107.867 60.7105 107.867 61.2911C107.865 61.8716 107.392 62.3472 106.811 62.3472Z" fill="white"/>
<path d="M106.811 67.7973H85.1866C84.6065 67.7973 84.1313 67.3217 84.1313 66.7412C84.1313 66.1606 84.6065 65.6851 85.1866 65.6851H106.811C107.392 65.6851 107.867 66.1606 107.867 66.7412C107.865 67.323 107.392 67.7973 106.811 67.7973Z" fill="white"/>
<path d="M106.811 72.6328H85.1866C84.6065 72.6328 84.1313 72.1572 84.1313 71.5766C84.1313 70.9961 84.6065 70.5205 85.1866 70.5205H106.811C107.392 70.5205 107.867 70.9961 107.867 71.5766C107.865 72.1572 107.392 72.6328 106.811 72.6328Z" fill="white"/>
<path d="M106.811 77.4682H85.1866C84.6065 77.4682 84.1313 76.9926 84.1313 76.4121C84.1313 75.8315 84.6065 75.356 85.1866 75.356H106.811C107.392 75.356 107.867 75.8315 107.867 76.4121C107.865 76.9926 107.392 77.4682 106.811 77.4682Z" fill="white"/>
<path d="M19.2553 40.1811H63.9835C67.1089 40.1811 69.6656 37.6223 69.6656 34.4944V18.3172C69.6656 15.1893 67.1089 12.6306 63.9835 12.6306H19.2553C16.1299 12.6306 13.5732 15.1893 13.5732 18.3172V34.4944C13.572 37.6223 16.1286 40.1811 19.2553 40.1811Z" fill="white"/>
<path d="M14.7914 77.4822C14.2075 77.4822 13.7285 77.0041 13.7285 76.4184V51.9604C13.7285 51.3761 14.2062 50.8967 14.7914 50.8967C15.3752 50.8967 15.8542 51.3748 15.8542 51.9604V76.4184C15.8542 77.0041 15.3752 77.4822 14.7914 77.4822Z" fill="url(#paint0_linear)"/>
<path d="M19.8807 77.4821C19.2968 77.4821 18.8179 77.004 18.8179 76.4184V65.5042C18.8179 64.9199 19.2956 64.4405 19.8807 64.4405C20.4646 64.4405 20.9436 64.9186 20.9436 65.5042V76.4184C20.9436 77.004 20.4646 77.4821 19.8807 77.4821Z" fill="url(#paint1_linear)"/>
<path d="M24.9701 77.4821C24.3862 77.4821 23.9072 77.004 23.9072 76.4184V55.0947C23.9072 54.5103 24.3849 54.0309 24.9701 54.0309C25.554 54.0309 26.0329 54.5091 26.0329 55.0947V76.4184C26.0317 77.004 25.554 77.4821 24.9701 77.4821Z" fill="url(#paint2_linear)"/>
<path d="M30.0585 77.4822C29.4746 77.4822 28.9956 77.0041 28.9956 76.4184V68.5828C28.9956 67.9985 29.4733 67.5191 30.0585 67.5191C30.6423 67.5191 31.1213 67.9972 31.1213 68.5828V76.4184C31.1213 77.0041 30.6436 77.4822 30.0585 77.4822Z" fill="url(#paint3_linear)"/>
<path d="M35.1473 77.4821C34.5635 77.4821 34.0845 77.004 34.0845 76.4184V63.2098C34.0845 62.6254 34.5622 62.1461 35.1473 62.1461C35.7312 62.1461 36.2102 62.6242 36.2102 63.2098V76.4184C36.2102 77.004 35.7325 77.4821 35.1473 77.4821Z" fill="url(#paint4_linear)"/>
<path d="M40.2372 77.4822C39.6533 77.4822 39.1743 77.0041 39.1743 76.4184V72.5051C39.1743 71.9207 39.652 71.4413 40.2372 71.4413C40.821 71.4413 41.3 71.9195 41.3 72.5051V76.4184C41.3 77.0041 40.821 77.4822 40.2372 77.4822Z" fill="url(#paint5_linear)"/>
<path d="M20.8529 31.8345C23.8544 35.9692 29.6362 36.8862 33.7663 33.8822L22.8977 18.9105C18.7676 21.9132 17.8513 27.6998 20.8529 31.8345Z" fill="#A7ADFF"/>
<path d="M23.8706 18.2022L28.85 25.0613L35.8362 19.9818C33.0028 16.2366 27.686 15.4284 23.8706 18.2022Z" fill="#A7ADFF"/>
<path d="M39.0822 19.3962C39.0367 19.333 38.9836 19.2773 38.9368 19.2153L29.5557 26.0353L36.5141 35.6214C41.7007 31.8497 42.8495 24.5858 39.0822 19.3962Z" fill="#FDC510"/>
<path d="M46.9365 19.7592C46.9365 19.1407 47.442 18.6335 48.0613 18.6335H63.1447C63.7627 18.6335 64.2695 19.1394 64.2695 19.7592C64.2695 20.3777 63.764 20.8849 63.1447 20.8849H48.0613C47.442 20.8849 46.9365 20.3777 46.9365 19.7592Z" fill="#FDC510"/>
<path d="M46.9365 25.1499C46.9365 24.5314 47.442 24.0242 48.0613 24.0242H53.1759C53.7939 24.0242 54.3007 24.5301 54.3007 25.1499C54.3007 25.7684 53.7951 26.2756 53.1759 26.2756H48.0613C47.442 26.2756 46.9365 25.7684 46.9365 25.1499Z" fill="#A7ADFF"/>
<path fill-rule="evenodd" clip-rule="evenodd" d="M43.3223 60.5726C43.3223 66.1695 47.8719 70.7229 53.4642 70.7229C59.0565 70.7229 63.6062 66.1695 63.6062 60.5726C63.6062 54.9757 59.0565 50.4224 53.4642 50.4224C47.8719 50.4224 43.3223 54.9757 43.3223 60.5726ZM44.2697 60.5727C44.2697 55.4994 48.3947 51.371 53.465 51.371C58.5354 51.371 62.6591 55.4982 62.6591 60.5727C62.6591 65.6472 58.5354 69.7756 53.465 69.7756C48.3947 69.7756 44.2697 65.6472 44.2697 60.5727Z" fill="#978CFF"/>
<path fill-rule="evenodd" clip-rule="evenodd" d="M46.6367 60.5727C46.6367 64.3406 49.6989 67.4053 53.4637 67.4053C57.2286 67.4053 60.2908 64.3406 60.2908 60.5727C60.2908 56.8047 57.2286 53.7401 53.4637 53.7401C49.6989 53.7401 46.6367 56.8047 46.6367 60.5727ZM47.5837 60.5727C47.5837 57.3284 50.2225 54.6887 53.4641 54.6887C56.707 54.6887 59.3433 57.3284 59.3433 60.5727C59.3433 63.8183 56.7058 66.458 53.4641 66.458C50.2212 66.458 47.5837 63.817 47.5837 60.5727Z" fill="#978CFF"/>
<path fill-rule="evenodd" clip-rule="evenodd" d="M49.5483 60.5727C49.5483 62.733 51.305 64.4911 53.4636 64.4911C55.6221 64.4911 57.3788 62.733 57.3788 60.5727C57.3788 58.4123 55.6234 56.6542 53.4636 56.6542C51.3038 56.6542 49.5483 58.4123 49.5483 60.5727ZM50.4968 60.5727C50.4968 58.9348 51.8276 57.6029 53.4642 57.6029C55.1008 57.6029 56.4316 58.9348 56.4316 60.5727C56.4316 62.2107 55.1008 63.5425 53.4642 63.5425C51.8276 63.5425 50.4968 62.2107 50.4968 60.5727Z" fill="#978CFF"/>
<path d="M52.9521 61.4239L53.0608 59.0119C53.0735 58.75 53.2921 58.5489 53.555 58.559C53.8166 58.5704 54.0188 58.793 54.0074 59.0536L53.9771 59.7214L69.681 50.4882C69.9072 50.3554 70.1966 50.4313 70.3293 50.6564C70.462 50.8815 70.3862 51.1724 70.1613 51.3053L52.9521 61.4239Z" fill="#FDC510"/>
<path d="M55.0813 61.5162H53.4637C53.2021 61.5162 52.9897 61.3037 52.9897 61.0419C52.9897 60.7801 53.2021 60.5676 53.4637 60.5676H55.0813C55.3429 60.5676 55.5553 60.7801 55.5553 61.0419C55.5553 61.3037 55.3429 61.5162 55.0813 61.5162Z" fill="#FDC510"/>
<path d="M82.224 40.3417C82.1469 40.3417 82.0685 40.3227 81.9965 40.2835C81.7665 40.157 81.6831 39.8699 81.8094 39.6397L85.6969 32.5554L88.802 35.529L90.8721 32.243L92.6882 33.3434L97.0319 22.5569L100.059 27.9312L102.907 23.7092L105.31 26.6588L110.169 17.7025C110.323 17.4179 110.527 17.1068 110.742 16.7767C110.918 16.5047 111.107 16.2163 111.271 15.9356C111.088 16.0152 110.901 16.1025 110.723 16.186C110.393 16.3403 110.082 16.4858 109.801 16.5806C109.555 16.6641 109.286 16.53 109.201 16.2821C109.118 16.0342 109.252 15.7648 109.499 15.6813C109.729 15.6042 110.016 15.4701 110.321 15.3272C110.925 15.0451 111.548 14.7529 112.1 14.7099L112.774 14.6581L112.593 15.3095C112.417 15.9406 111.969 16.6287 111.534 17.2952C111.329 17.6089 111.136 17.9049 111.001 18.1553L105.468 28.3536L102.978 25.2966L99.9854 29.7323L97.1721 24.7388L93.1482 34.7296L91.1754 33.5344L88.984 37.0139L85.9332 34.0922L82.6398 40.095C82.5538 40.2532 82.3921 40.3417 82.224 40.3417Z" fill="#5A54FF"/>
<path d="M112.414 18.0251C112.152 18.0251 111.94 17.8126 111.94 17.5508V15.1805C111.94 14.9187 112.152 14.7062 112.414 14.7062C112.676 14.7062 112.889 14.9187 112.889 15.1805V17.5508C112.889 17.8126 112.676 18.0251 112.414 18.0251Z" fill="#5A54FF"/>
<path d="M81.7512 43.1053C81.4906 43.1053 81.2769 42.8916 81.2769 42.631V12.3789C81.2769 12.1183 81.4906 11.9045 81.7512 11.9045C82.0117 11.9045 82.2255 12.1183 82.2255 12.3789V42.6323C82.2255 42.8928 82.0117 43.1053 81.7512 43.1053Z" fill="#A7ADFF"/>
<path d="M78.8711 40.3417C78.8711 40.0811 79.0847 39.8674 79.345 39.8674H109.574C109.834 39.8674 110.048 40.0811 110.048 40.3417C110.048 40.6022 109.834 40.816 109.574 40.816H79.3438C79.0834 40.8147 78.8711 40.6022 78.8711 40.3417Z" fill="#A7ADFF"/>
<path d="M99.2933 19.3531H90.4935C89.6253 19.3531 88.915 18.6423 88.915 17.7734C88.915 16.9044 89.6253 16.1936 90.4935 16.1936H99.2933C100.162 16.1936 100.872 16.9044 100.872 17.7734C100.872 18.6423 100.162 19.3531 99.2933 19.3531Z" fill="url(#paint6_linear)"/>
<rect x="105.27" y="26.2756" width="0.355416" height="0.474311" fill="#4B369D"/>
<path fill-rule="evenodd" clip-rule="evenodd" d="M105.271 20.0312H105.626V19.1395H105.271V20.0312ZM105.626 21.8145H105.271V20.9228H105.626V21.8145ZM105.271 23.5992H105.626V22.7075H105.271V23.5992ZM105.271 25.3839H105.626V24.4922H105.271V25.3839Z" fill="#4B369D"/>
<path d="M105.626 18.2465H105.271V17.9505H104.975V17.5951H105.626V18.2465Z" fill="#4B369D"/>
<rect x="102.555" y="17.5951" width="1.2117" height="0.355417" fill="#4B369D"/>
<rect x="100.872" y="17.595" width="0.47431" height="0.355417" fill="#4B369D"/>
<path d="M105.667 28.8659H105.23C104.638 28.8659 104.154 28.3815 104.154 27.7896V27.3519C104.154 26.76 104.638 26.2756 105.23 26.2756H105.667C106.259 26.2756 106.743 26.76 106.743 27.3519V27.7896C106.743 28.3815 106.259 28.8659 105.667 28.8659Z" fill="url(#paint7_linear)"/>
<path d="M138.887 50.5552C138.887 50.5552 140.289 57.2246 140.17 59.9503C140.051 62.676 137.684 66.7425 137.684 66.7425L136.155 50.5564H138.887V50.5552Z" fill="#EAC2AB"/>
<path d="M130.522 38.3256L130.83 44.0705L135.323 45.8046C135.323 45.8046 132.621 41.8482 133.08 38.3256C133.536 34.8031 130.522 38.3256 130.522 38.3256Z" fill="#D4A79A"/>
<path d="M126.507 26.5716C126.507 26.5716 125.529 27.8693 126.483 31.8472C127.437 35.8263 128.986 39.2236 130.185 38.9833C133.497 38.3206 134.66 35.9781 135.808 33.967C137.216 31.5006 134.421 25.4851 134.421 25.4851L131.779 24.0583L126.507 26.5716Z" fill="#EAC2AB"/>
<path d="M122.98 25.5002C122.691 24.5668 123.199 23.3728 123.877 22.796C124.139 22.5734 124.469 22.4317 124.799 22.4646C125.046 22.4887 125.289 22.6088 125.535 22.5683C126.273 22.4456 126.362 21.3566 127.047 21.1353C127.557 20.9709 128.048 21.4338 128.568 21.5565C128.962 21.6488 129.368 21.5426 129.764 21.4603C130.877 21.2264 131.91 20.6913 133.051 20.5535C134.014 20.4371 135.019 20.5459 135.89 21.0139C136.8 21.5021 137.452 22.4001 137.799 23.4373C138.006 24.057 138.073 24.7476 137.907 25.3826C138.043 24.8602 138.982 25.4218 139.135 25.6267C139.732 26.4337 139.834 28.1829 139.517 29.1214C139.265 29.8651 138.852 30.5228 138.622 31.2767C138.349 32.176 138.235 33.1739 137.737 33.9708C137.167 34.8852 134.098 37.8867 133.123 37.6337C133.424 36.8065 131.958 36.0552 132.012 35.166C132.067 34.2769 132.621 29.6488 128.251 28.7824C126.514 28.4384 128.743 27.8743 127.003 27.9439C126.176 27.9767 125.348 27.8161 124.574 27.5012C123.975 27.2583 123.392 26.3641 123.062 25.7102C123.029 25.6419 123.003 25.5723 122.98 25.5002Z" fill="#4B369D"/>
<path d="M131.738 31.4981C131.738 31.4981 133.555 29.9411 133.422 32.047C133.289 34.153 131.589 34.7639 131.589 34.7639L131.738 31.4981Z" fill="#EAC2AB"/>
<path d="M136.595 111.046L135.478 118.63L137.972 119.264L138.669 111.282C138.667 111.282 137.356 110.74 136.595 111.046Z" fill="#D4A79A"/>
<path d="M125.698 122.273C125.698 122.273 127.566 122.769 131.082 122.783C134.598 122.797 138.509 122.653 139.182 122.084C139.855 121.515 140.002 117.066 138.835 117.148C137.669 117.231 137.334 118.951 135.174 117.589C133.323 116.421 132.087 118.953 129.066 119.818C126.046 120.684 124.822 121.03 125.698 122.273Z" fill="url(#paint8_linear)"/>
<path d="M130.378 113.384C130.474 113.078 130.766 112.832 131.016 112.581C133.309 110.283 132.486 107.083 131.896 104.276C130.498 97.6182 131.015 90.7729 130.914 84.0225C130.815 77.434 129.751 70.8898 127.93 64.5897C127.269 62.3004 126.328 58.7551 129.668 59.2041C131.25 59.4166 132.784 59.2458 134.319 58.8385C135.126 58.6248 134.271 58.392 135.126 58.6248C138.039 59.4166 139.705 67.8163 139.264 69.902C138.387 74.0544 138.09 75.3838 138.204 79.7082C138.365 85.8414 137.862 92.0276 138.952 98.047C139.486 100.997 140.072 103.936 140.643 106.877C140.976 108.592 142.566 112.293 141.788 113.921C140.719 116.157 135.153 114.716 133.333 114.795C131.967 114.855 130.051 114.428 130.378 113.384Z" fill="#4B369D"/>
<path d="M130.943 111.307L129.299 118.794L131.743 119.601L132.995 111.687C132.995 111.688 131.724 111.056 130.943 111.307Z" fill="#EAC2AB"/>
<path d="M119.289 121.745C119.289 121.745 121.118 122.37 124.624 122.63C128.13 122.891 132.042 123.021 132.753 122.5C133.464 121.979 133.922 117.553 132.753 117.553C131.584 117.553 131.13 119.246 129.069 117.735C127.303 116.441 125.893 118.881 122.819 119.531C119.747 120.182 118.502 120.442 119.289 121.745Z" fill="url(#paint9_linear)"/>
<path d="M124.579 113.405C124.696 113.13 125.005 112.925 125.272 112.711C127.72 110.759 127.123 107.78 126.731 105.177C125.802 99.002 126.797 92.7778 127.168 86.6016C127.53 80.5734 126.927 74.5238 125.55 68.6474C125.05 66.5123 124.36 63.2111 127.66 63.836C129.223 64.1319 130.766 64.0737 132.324 63.8005C133.145 63.6564 132.308 63.3895 133.145 63.6564C135.994 64.567 137.103 67.6089 136.518 69.4859C135.352 73.226 134.929 79.1644 134.741 83.1246C134.473 88.7404 133.539 94.3626 134.205 99.9354C134.531 102.666 134.91 105.389 135.274 108.115C135.486 109.705 136.815 113.188 135.924 114.628C134.7 116.603 129.25 114.929 127.428 114.884C126.061 114.85 124.181 114.337 124.579 113.405Z" fill="#5A54FF"/>
<path d="M121.399 49.3258C120.219 50.2187 118.963 51.0093 117.648 51.6885C116.626 52.2159 113.853 53.9955 112.779 52.9065C112.466 52.5878 112.329 52.1388 112.217 51.7062C111.551 49.1525 110.584 46.6911 109.638 44.231C108.793 42.034 107.778 39.7169 107.856 37.3137C107.937 34.8599 107.791 31.5499 107.557 30.9491C107.323 30.3483 105.406 26.8118 105.371 27.9122C105.335 29.0126 107.183 32.0381 106.34 31.9255C105.497 31.813 103.696 32.5162 103.908 33.7949C104.121 35.0724 105.469 37.8285 105.469 37.8285C106.059 40.3113 106.681 42.7891 107.327 45.2581C107.81 47.1047 108.305 48.9514 108.857 50.7791C109.395 52.5561 109.892 54.485 111.454 55.6638C111.658 55.8181 111.874 55.9547 112.104 56.0648C113.954 56.9502 116.129 56.023 117.929 55.039C121.79 52.928 125.45 50.4919 129.138 48.0976C128.416 47.3881 127.694 46.6798 126.974 45.9702C126.801 45.8007 126.611 45.6211 126.372 45.5857C126.093 45.5427 125.826 45.7046 125.595 45.8677C124.444 46.676 123.437 47.6663 122.356 48.5681C122.043 48.8274 121.723 49.0804 121.399 49.3258Z" fill="#EAC2AB"/>
<path d="M133.932 51.2925C133.932 51.2925 130.137 44.9191 133.033 43.7276C135.93 42.5361 138.887 50.5564 138.887 50.5564L134.119 52.4385L133.932 51.2925Z" fill="url(#paint10_linear)"/>
<path d="M125.159 65.1133C125.159 64.8503 124.721 58.005 125.685 53.6173C126.649 49.2296 125.685 45.4554 129.018 42.8233C132.35 40.1912 135.068 43.7011 135.945 45.5439C136.822 47.3868 137.557 53.2379 137.681 56.338C137.807 59.5064 139.472 66.2011 139.539 66.3428C140.861 69.0938 139.991 68.8914 139.876 69.1532C139.162 70.7823 134.518 71.0985 133.402 70.5217C130.955 69.2569 130.436 68.5688 127.798 68.9749C126.658 69.1507 125.398 68.799 125.06 68.4487C124.721 68.0983 125.159 65.1133 125.159 65.1133Z" fill="url(#paint11_linear)"/>
<path d="M123.3 46.342C123.3 46.342 129.456 39.7737 131.816 42.7549C134.177 45.7361 125.82 51.8794 125.82 51.8794L122.028 46.9441L123.3 46.342Z" fill="url(#paint12_linear)"/>
<defs>
<linearGradient id="paint0_linear" x1="13.7285" y1="64.9105" x2="15.8542" y2="64.9105" gradientUnits="userSpaceOnUse">
<stop stop-color="#34BCF6"/>
<stop offset="1" stop-color="#63DDF8"/>
</linearGradient>
<linearGradient id="paint1_linear" x1="18.8179" y1="71.315" x2="20.9436" y2="71.315" gradientUnits="userSpaceOnUse">
<stop stop-color="#34BCF6"/>
<stop offset="1" stop-color="#63DDF8"/>
</linearGradient>
<linearGradient id="paint2_linear" x1="23.9072" y1="66.3926" x2="26.0329" y2="66.3926" gradientUnits="userSpaceOnUse">
<stop stop-color="#34BCF6"/>
<stop offset="1" stop-color="#63DDF8"/>
</linearGradient>
<linearGradient id="paint3_linear" x1="28.9956" y1="72.7709" x2="31.1213" y2="72.7709" gradientUnits="userSpaceOnUse">
<stop stop-color="#34BCF6"/>
<stop offset="1" stop-color="#63DDF8"/>
</linearGradient>
<linearGradient id="paint4_linear" x1="34.0845" y1="70.23" x2="36.2102" y2="70.23" gradientUnits="userSpaceOnUse">
<stop stop-color="#34BCF6"/>
<stop offset="1" stop-color="#63DDF8"/>
</linearGradient>
<linearGradient id="paint5_linear" x1="39.1743" y1="74.6256" x2="41.3" y2="74.6256" gradientUnits="userSpaceOnUse">
<stop stop-color="#34BCF6"/>
<stop offset="1" stop-color="#63DDF8"/>
</linearGradient>
<linearGradient id="paint6_linear" x1="88.915" y1="17.8591" x2="100.872" y2="17.8591" gradientUnits="userSpaceOnUse">
<stop stop-color="#34BCF6"/>
<stop offset="1" stop-color="#63DDF8"/>
</linearGradient>
<linearGradient id="paint7_linear" x1="104.154" y1="27.641" x2="106.743" y2="27.641" gradientUnits="userSpaceOnUse">
<stop stop-color="#34BCF6"/>
<stop offset="1" stop-color="#63DDF8"/>
</linearGradient>
<linearGradient id="paint8_linear" x1="125.421" y1="120.119" x2="139.701" y2="120.119" gradientUnits="userSpaceOnUse">
<stop stop-color="#32B3EB"/>
<stop offset="1" stop-color="#5ED1EB"/>
</linearGradient>
<linearGradient id="paint9_linear" x1="119.059" y1="120.26" x2="133.468" y2="120.26" gradientUnits="userSpaceOnUse">
<stop stop-color="#34BCF6"/>
<stop offset="1" stop-color="#63DDF8"/>
</linearGradient>
<linearGradient id="paint10_linear" x1="131.944" y1="48.2622" x2="138.887" y2="48.2622" gradientUnits="userSpaceOnUse">
<stop stop-color="#34BCF6"/>
<stop offset="1" stop-color="#63DDF8"/>
</linearGradient>
<linearGradient id="paint11_linear" x1="124.931" y1="57.1175" x2="140.263" y2="57.1175" gradientUnits="userSpaceOnUse">
<stop stop-color="#32B3EB"/>
<stop offset="1" stop-color="#5ED1EB"/>
</linearGradient>
<linearGradient id="paint12_linear" x1="122.028" y1="47.1977" x2="132.236" y2="47.1977" gradientUnits="userSpaceOnUse">
<stop stop-color="#34BCF6"/>
<stop offset="1" stop-color="#63DDF8"/>
</linearGradient>
</defs>
</svg>
