<svg width="142" height="132" viewBox="0 0 142 132" fill="none" xmlns="http://www.w3.org/2000/svg">
<path d="M51.1562 43.8673L46.7445 56.9903L35.2422 58.1042C35.2422 58.1042 44.0336 50.6783 45.244 42.2124C46.4543 33.7465 51.1562 43.8673 51.1562 43.8673Z" fill="#D4A79A"/>
<path d="M68.0042 19.2053C68.0042 19.2053 69.4309 22.8483 64.6633 31.4574C59.8956 40.0666 54.1261 46.9436 51.5098 45.6123C44.2782 41.9323 43.1015 35.7459 41.742 30.3386C40.0748 23.7079 50.4117 11.5669 50.4117 11.5669L57.4365 9.96838L68.0042 19.2053Z" fill="#EAC2AB"/>
<path d="M77.4406 19.1731C78.2422 16.9806 78.1139 14.5192 76.5188 12.1496C76.0572 11.4639 75.3855 10.923 74.6031 10.7845C74.0148 10.6799 73.3752 10.8022 72.8333 10.5463C71.2062 9.78324 71.7031 7.19953 70.2619 6.24332C69.1862 5.53018 67.7563 6.28678 66.4722 6.23366C65.5023 6.19342 64.6318 5.68472 63.7709 5.23559C61.347 3.97191 59.3063 2.0627 56.7557 1.00346C54.6028 0.110026 52.2125 -0.289202 49.8976 0.23237C47.4817 0.776478 45.3961 2.43617 43.9228 4.61582C43.0427 5.91975 42.4448 7.47803 42.4207 9.05884C42.44 7.75974 39.9103 8.45195 39.4245 8.83186C37.5248 10.3161 36.1638 14.31 36.2921 16.6908C36.393 18.5759 36.9269 20.3708 36.9718 22.2672C37.0696 26.4156 36.6255 33.3216 42.743 33.4342C42.581 31.3222 42.4352 29.1699 42.8792 27.074C43.6728 23.3409 45.3256 18.4069 48.7594 16.2852C56.0103 11.8084 58.4502 23.4536 63.9344 25.6574C69.0403 27.7131 75.6243 24.1377 77.4406 19.1731Z" fill="#4B369D"/>
<path d="M44.7578 20.3708C44.7578 20.3708 42.826 16.3818 41.7776 21.3512C40.7308 26.3222 42.9976 28.0431 42.9976 28.0431L44.7578 20.3708Z" fill="#EAC2AB"/>
<path d="M56.9968 90.6574C56.4726 83.848 55.5348 76.6458 53.9653 69.83C52.7518 64.5612 51.612 57.3461 46.4499 54.3438C36.7816 48.7192 30.5599 62.6053 28.8526 69.9137C26.9064 78.2395 27.1533 87.0113 27.0636 95.5093C26.9834 103.13 25.9157 111.528 26.9481 119.019C27.1309 120.34 27.6118 121.696 28.6426 122.538C31.2637 124.679 33.9665 121.841 36.1724 120.579C38.2356 119.397 40.4207 119.592 42.6121 118.798C44.5374 118.101 45.4849 116.656 47.096 115.532C51.3218 112.583 55.8714 117.327 60.4515 116.438C70.4068 114.506 62.8065 117.232 58.8003 97.1481C58.3915 95.1021 57.1828 93.0818 56.9968 90.6574Z" fill="url(#paint0_linear)"/>
<path d="M82.8776 75.6477C86.6594 73.1992 88.1246 67.7034 91.6226 64.7575C93.0478 63.5582 94.7374 62.8467 96.4127 62.1883C98.8045 61.2465 101.22 60.3789 103.654 59.5869C103.502 60.836 102.543 61.7617 101.547 62.3138C100.552 62.866 99.4506 63.1799 98.524 63.8721C98.1152 64.1764 97.7401 64.5659 97.5284 65.0666C97.0523 66.1918 97.514 67.544 97.3136 68.7723C96.9369 71.0759 94.5835 72.016 92.78 73.1429C89.056 75.469 86.6498 80.0521 82.7686 82.016C82.7686 82.016 53.6434 106.3 50.0524 105.628C46.4614 104.957 41.5062 71.8357 41.5062 71.8357C41.5062 71.8357 38.0884 54.7655 47.0674 62.9433C56.0464 71.121 50.5189 98.2862 54.9563 95.4819C59.3905 92.676 82.8776 75.6477 82.8776 75.6477Z" fill="#EAC2AB"/>
<path d="M53.5327 76.4655C53.5327 76.4655 52.5019 55.4256 43.8115 57.1625C35.121 58.8995 40.7014 82.5167 40.7014 82.5167L54.8825 79.4678L53.5327 76.4655Z" fill="url(#paint1_linear)"/>
<path d="M73.1307 127.942H14.4762C11.8663 127.942 9.73096 125.798 9.73096 123.177V116.459C9.73096 113.838 11.8663 111.694 14.4762 111.694H73.1307C75.7406 111.694 77.8759 113.838 77.8759 116.459V123.177C77.8743 125.798 75.739 127.942 73.1307 127.942Z" fill="#E3E5FC"/>
<path d="M42.3958 132H3.17255C1.42677 132 0 130.566 0 128.814V124.323C0 122.57 1.42837 121.137 3.17255 121.137H42.3958C44.1416 121.137 45.5684 122.572 45.5684 124.323V128.814C45.5684 130.567 44.14 132 42.3958 132Z" fill="url(#paint2_linear)"/>
<path d="M40.3702 126.836L40.2259 127.013C40.1698 127.082 40.0672 127.092 39.9983 127.035L36.7264 124.36C36.6574 124.304 36.6478 124.201 36.7039 124.131L36.8482 123.954C36.9043 123.885 37.0069 123.875 37.0758 123.932L40.3478 126.607C40.4151 126.664 40.4263 126.767 40.3702 126.836Z" fill="white"/>
<path d="M40.3702 126.696L40.2259 126.519C40.1698 126.45 40.0672 126.44 39.9983 126.496L36.7264 129.172C36.6574 129.228 36.6478 129.331 36.7039 129.4L36.8482 129.577C36.9043 129.647 37.0069 129.656 37.0758 129.6L40.3478 126.924C40.4151 126.866 40.4263 126.763 40.3702 126.696Z" fill="white"/>
<path d="M35.8004 126.836L35.6561 127.013C35.6 127.082 35.4974 127.092 35.4285 127.035L32.1565 124.36C32.0876 124.304 32.078 124.201 32.1341 124.131L32.2784 123.954C32.3345 123.885 32.4371 123.875 32.506 123.932L35.778 126.607C35.8469 126.664 35.8565 126.767 35.8004 126.836Z" fill="white"/>
<path d="M35.8004 126.696L35.6561 126.519C35.6 126.45 35.4974 126.44 35.4285 126.496L32.1565 129.172C32.0876 129.228 32.078 129.331 32.1341 129.4L32.2784 129.577C32.3345 129.647 32.4371 129.656 32.506 129.6L35.778 126.924C35.8469 126.866 35.8565 126.763 35.8004 126.696Z" fill="white"/>
<path d="M30.8155 126.836L30.6713 127.013C30.6152 127.082 30.5126 127.092 30.4436 127.035L27.1717 124.36C27.1027 124.304 27.0931 124.201 27.1492 124.131L27.2935 123.954C27.3496 123.885 27.4522 123.875 27.5212 123.932L30.7931 126.607C30.862 126.664 30.8716 126.767 30.8155 126.836Z" fill="white"/>
<path d="M30.8151 126.696L30.6708 126.519C30.6147 126.45 30.5121 126.44 30.4431 126.496L27.1712 129.172C27.1023 129.228 27.0926 129.331 27.1487 129.4L27.293 129.577C27.3491 129.647 27.4517 129.656 27.5207 129.6L30.7926 126.924C30.8615 126.866 30.8712 126.763 30.8151 126.696Z" fill="white"/>
<path opacity="0.26" d="M135.179 81.6345L75.8032 102.306C72.0359 102.306 68.9819 99.2391 68.9819 95.4561V66.0163C68.9819 62.2333 72.0359 59.1667 75.8032 59.1667L135.179 38.4954C138.946 38.4954 142 41.562 142 45.345V74.7848C142 78.5678 138.946 81.6345 135.179 81.6345Z" fill="#A7ADFF"/>
<path opacity="0.13" d="M131.514 79.8976L72.1381 100.569C68.3708 100.569 65.3169 97.5022 65.3169 93.7192V64.281C65.3169 60.498 68.3708 57.4314 72.1381 57.4314L131.514 36.7601C135.281 36.7601 138.335 39.8267 138.335 43.6097V73.0479C138.335 76.8309 135.281 79.8976 131.514 79.8976Z" fill="#A7ADFF"/>
<path opacity="0.39" d="M95.7851 71.0969L77.4647 77.4748C76.3025 77.4748 75.3599 76.5283 75.3599 75.3612V66.2772C75.3599 65.1101 76.3025 64.1635 77.4647 64.1635L95.7851 57.7855C96.9473 57.7855 97.8899 58.7321 97.8899 59.8992V68.9832C97.8899 70.1503 96.9473 71.0969 95.7851 71.0969Z" fill="white"/>
<path d="M137.318 28.645L118.997 35.023C117.835 35.023 116.893 34.0765 116.893 32.9094V23.8253C116.893 22.6582 117.835 21.7117 118.997 21.7117L137.318 15.3337C138.48 15.3337 139.423 16.2803 139.423 17.4474V26.5314C139.423 27.6985 138.48 28.645 137.318 28.645Z" fill="#A7ADFF"/>
<path d="M130.373 26.2353L113.027 32.2736C111.926 32.2736 111.035 31.3769 111.035 30.2726V21.6731C111.035 20.5672 111.928 19.6722 113.027 19.6722L130.373 13.6339C131.474 13.6339 132.366 14.5305 132.366 15.6348V24.2343C132.366 25.3402 131.473 26.2353 130.373 26.2353Z" fill="#E3E5FC"/>
<path d="M136.343 96.3351L118.997 102.373C117.896 102.373 117.004 101.477 117.004 100.372V91.7729C117.004 90.667 117.897 89.772 118.997 89.772L136.343 83.7336C137.444 83.7336 138.335 84.6303 138.335 85.7346V94.3341C138.335 95.44 137.444 96.3351 136.343 96.3351Z" fill="#E3E5FC"/>
<path d="M107.559 99.2649L89.2387 105.643C88.0764 105.643 87.1338 104.696 87.1338 103.529V94.4468C87.1338 93.2797 88.0764 92.3331 89.2387 92.3331L107.559 85.9551C108.721 85.9551 109.664 86.9017 109.664 88.0688V97.1528C109.664 98.3183 108.721 99.2649 107.559 99.2649Z" fill="#A7ADFF"/>
<path opacity="0.51" d="M95.7851 87.697L77.4647 94.075C76.3025 94.075 75.3599 93.1284 75.3599 91.9613V82.8773C75.3599 81.7102 76.3025 80.7637 77.4647 80.7637L95.7851 74.3857C96.9473 74.3857 97.8899 75.3322 97.8899 76.4993V85.5834C97.8899 86.7505 96.9473 87.697 95.7851 87.697Z" fill="white"/>
<path opacity="0.51" d="M104.585 82.0612C104.138 82.0612 103.771 81.6925 103.771 81.2434V67.5312C103.771 67.0821 104.138 66.7134 104.585 66.7134C105.033 66.7134 105.4 67.0821 105.4 67.5312V81.2434C105.4 81.6925 105.034 82.0612 104.585 82.0612Z" fill="white"/>
<path opacity="0.51" d="M108.967 55.2421C108.816 54.8187 109.039 54.3487 109.461 54.1973L131.128 46.4333C131.55 46.282 132.018 46.5058 132.169 46.9291C132.32 47.3525 132.097 47.8226 131.675 47.9739L110.007 55.7379C109.586 55.8892 109.118 55.6655 108.967 55.2421Z" fill="white"/>
<path opacity="0.51" d="M108.966 58.2074C108.815 57.784 109.038 57.3139 109.46 57.1626L131.127 49.3986C131.549 49.2473 132.017 49.471 132.168 49.8944C132.319 50.3178 132.096 50.7878 131.674 50.9392L110.007 58.7032C109.585 58.8529 109.117 58.6307 108.966 58.2074Z" fill="white"/>
<path opacity="0.51" d="M108.966 61.1709C108.815 60.7475 109.038 60.2775 109.46 60.1262L131.127 52.3622C131.549 52.2108 132.017 52.4346 132.168 52.858C132.319 53.2813 132.096 53.7514 131.674 53.9027L110.007 61.6667C109.585 61.8181 109.117 61.5943 108.966 61.1709Z" fill="white"/>
<path opacity="0.51" d="M108.966 64.1361C108.815 63.7128 109.038 63.2427 109.46 63.0914L131.127 55.3274C131.549 55.176 132.017 55.3998 132.168 55.8232C132.319 56.2466 132.096 56.7166 131.674 56.8679L110.007 64.6319C109.585 64.7817 109.117 64.5595 108.966 64.1361Z" fill="white"/>
<path opacity="0.51" d="M108.966 67.0998C108.815 66.6764 109.038 66.2063 109.46 66.055L131.127 58.291C131.549 58.1397 132.017 58.3634 132.168 58.7868C132.319 59.2102 132.096 59.6802 131.674 59.8316L110.007 67.5956C109.585 67.7469 109.117 67.5231 108.966 67.0998Z" fill="white"/>
<path opacity="0.51" d="M108.966 70.0634C108.815 69.64 109.038 69.1699 109.46 69.0186L131.127 61.2546C131.549 61.1033 132.017 61.3271 132.168 61.7504C132.319 62.1738 132.096 62.6439 131.674 62.7952L110.007 70.5592C109.585 70.7105 109.117 70.4867 108.966 70.0634Z" fill="white"/>
<path opacity="0.51" d="M108.966 73.0286C108.815 72.6052 109.038 72.1352 109.46 71.9838L131.127 64.2198C131.549 64.0685 132.017 64.2923 132.168 64.7156C132.319 65.139 132.096 65.6091 131.674 65.7604L110.007 73.5244C109.585 73.6741 109.117 73.452 108.966 73.0286Z" fill="white"/>
<path opacity="0.51" d="M108.966 75.9923C108.815 75.569 109.038 75.0989 109.46 74.9476L131.127 67.1836C131.549 67.0322 132.017 67.256 132.168 67.6794C132.319 68.1028 132.096 68.5728 131.674 68.7241L110.007 76.4881C109.585 76.6395 109.117 76.4157 108.966 75.9923Z" fill="white"/>
<path opacity="0.51" d="M108.966 78.9574C108.815 78.534 109.038 78.064 109.46 77.9127L131.127 70.1487C131.549 69.9973 132.017 70.2211 132.168 70.6445C132.319 71.0678 132.096 71.5379 131.674 71.6892L110.007 79.4532C109.585 79.6029 109.117 79.3808 108.966 78.9574Z" fill="white"/>
<path opacity="0.51" d="M108.966 81.9211C108.815 81.4977 109.038 81.0277 109.46 80.8763L131.127 73.1123C131.549 72.961 132.017 73.1848 132.168 73.6082C132.319 74.0315 132.096 74.5016 131.674 74.6529L110.007 82.4169C109.585 82.5682 109.117 82.3445 108.966 81.9211Z" fill="white"/>
<path d="M99.1318 31.6072C99.3338 31.4816 99.5454 31.3689 99.7603 31.2691C102.622 29.9507 106.017 31.216 107.332 34.0895C108.645 36.963 107.385 40.3725 104.523 41.6909L103.952 40.4417C106.128 39.4388 107.085 36.8471 106.088 34.6626C105.089 32.4781 102.508 31.517 100.333 32.5183C100.169 32.594 100.007 32.6809 99.8532 32.7759L99.1318 31.6072Z" fill="#E3E5FC"/>
<path d="M102.55 41.8438L105.077 42.0821L104.019 39.764L102.55 41.8438Z" fill="#E3E5FC"/>
<path d="M102.066 42.7743C101.864 42.8999 101.652 43.0126 101.437 43.1124C98.5755 44.4308 95.1786 43.1655 93.8656 40.292C92.5527 37.4186 93.8127 34.009 96.6743 32.6906L97.245 33.9398C95.0695 34.9427 94.1125 37.5345 95.1096 39.7189C96.1084 41.9034 98.6894 42.8645 100.865 41.8632C101.028 41.7875 101.19 41.7006 101.344 41.6056L102.066 42.7743Z" fill="#E3E5FC"/>
<path d="M98.6497 32.5376L96.1216 32.2994L97.1796 34.6159L98.6497 32.5376Z" fill="#E3E5FC"/>
<path opacity="0.36" d="M104.585 63.2846C106.895 63.2846 108.767 61.4042 108.767 59.0846C108.767 56.7651 106.895 54.8847 104.585 54.8847C102.275 54.8847 100.402 56.7651 100.402 59.0846C100.402 61.4042 102.275 63.2846 104.585 63.2846Z" fill="url(#paint3_linear)"/>
<path d="M104.585 61.1854C105.74 61.1854 106.677 60.2449 106.677 59.0847C106.677 57.9244 105.74 56.9839 104.585 56.9839C103.429 56.9839 102.493 57.9244 102.493 59.0847C102.493 60.2449 103.429 61.1854 104.585 61.1854Z" fill="url(#paint4_linear)"/>
<path opacity="0.36" d="M104.585 62.0548C106.219 62.0548 107.543 60.7251 107.543 59.0847C107.543 57.4444 106.219 56.1147 104.585 56.1147C102.952 56.1147 101.627 57.4444 101.627 59.0847C101.627 60.7251 102.952 62.0548 104.585 62.0548Z" fill="url(#paint5_linear)"/>
<defs>
<linearGradient id="paint0_linear" x1="26.501" y1="90.0804" x2="65.3646" y2="90.0804" gradientUnits="userSpaceOnUse">
<stop stop-color="#34BCF6"/>
<stop offset="1" stop-color="#63DDF8"/>
</linearGradient>
<linearGradient id="paint1_linear" x1="38.9375" y1="70.4791" x2="54.8825" y2="70.4791" gradientUnits="userSpaceOnUse">
<stop stop-color="#32B3EB"/>
<stop offset="1" stop-color="#5ED1EB"/>
</linearGradient>
<linearGradient id="paint2_linear" x1="0" y1="126.863" x2="45.5684" y2="126.863" gradientUnits="userSpaceOnUse">
<stop stop-color="#34BCF6"/>
<stop offset="1" stop-color="#63DDF8"/>
</linearGradient>
<linearGradient id="paint3_linear" x1="100.402" y1="59.3125" x2="108.767" y2="59.3125" gradientUnits="userSpaceOnUse">
<stop stop-color="#34BCF6"/>
<stop offset="1" stop-color="#63DDF8"/>
</linearGradient>
<linearGradient id="paint4_linear" x1="102.493" y1="59.1986" x2="106.677" y2="59.1986" gradientUnits="userSpaceOnUse">
<stop stop-color="#34BCF6"/>
<stop offset="1" stop-color="#63DDF8"/>
</linearGradient>
<linearGradient id="paint5_linear" x1="101.627" y1="59.2459" x2="107.543" y2="59.2459" gradientUnits="userSpaceOnUse">
<stop stop-color="#34BCF6"/>
<stop offset="1" stop-color="#63DDF8"/>
</linearGradient>
</defs>
</svg>
