<svg width="180" height="131" viewBox="0 0 180 131" fill="none" xmlns="http://www.w3.org/2000/svg">
<path d="M156.113 110.792C155.855 110.921 155.453 110.994 154.864 110.994C139.036 110.992 123.213 110.988 107.382 111.031C99.4535 111.052 91.5239 110.995 83.5957 111.013C79.5914 111.022 75.5871 111.05 71.5843 111.117C69.5822 111.152 67.58 111.195 65.5779 111.25C64.106 111.291 62.3199 111.565 60.9181 110.952C60.4399 110.743 59.9885 110.462 59.7978 109.948C59.7665 109.825 59.7591 109.703 59.774 109.578C59.9289 108.509 61.5631 106.716 62.2052 105.831C63.5236 104.016 64.8717 102.04 67.2359 101.41C68.6109 101.045 70.0618 101.051 71.489 101.06C96.5293 101.06 121.571 101.199 146.61 101.276C148.18 101.281 150.118 101.512 151.21 102.713C152.598 104.239 153.82 105.891 154.943 107.601C155.621 108.623 157.245 110.23 156.113 110.792Z" fill="#978CFF"/>
<path d="M145.341 102.349H70.3393C66.6553 102.349 63.6416 99.3306 63.6416 95.6409V42.3403C63.6416 38.6505 66.6553 35.6322 70.3393 35.6322H145.342C149.027 35.6322 152.04 38.6505 152.04 42.3403V95.6409C152.04 99.3306 149.025 102.349 145.341 102.349Z" fill="#A7ADFF"/>
<path d="M72.6735 38.5312C68.8539 38.5312 65.7285 41.6614 65.7285 45.4869V81.9472C88.3332 68.361 110.442 54.0033 131.791 38.5312L72.6735 38.5312Z" fill="#EFF0FC"/>
<path d="M142.625 38.5312H131.791C110.44 54.0018 88.3332 68.361 65.7285 81.9472V89.828C65.7285 93.6535 68.8539 96.7837 72.6735 96.7837H142.625C146.445 96.7837 149.57 93.6535 149.57 89.828V45.4869C149.57 41.6614 146.445 38.5312 142.625 38.5312Z" fill="#E3E5FC"/>
<path d="M112.578 99.3052H106.242C106.129 99.3052 106.037 99.2127 106.037 99.0993V98.9621C106.037 98.8487 106.129 98.7562 106.242 98.7562H112.578C112.691 98.7562 112.783 98.8487 112.783 98.9621V99.0993C112.783 99.2127 112.691 99.3052 112.578 99.3052Z" fill="#E3E5FC"/>
<path d="M72.0703 37.8717C72.411 37.8717 72.6871 37.5951 72.6871 37.254C72.6871 36.9128 72.411 36.6363 72.0703 36.6363C71.7297 36.6363 71.4536 36.9128 71.4536 37.254C71.4536 37.5951 71.7297 37.8717 72.0703 37.8717Z" fill="#E3E5FC"/>
<path d="M74.7261 37.8717C75.0667 37.8717 75.3428 37.5951 75.3428 37.254C75.3428 36.9128 75.0667 36.6363 74.7261 36.6363C74.3855 36.6363 74.1094 36.9128 74.1094 37.254C74.1094 37.5951 74.3855 37.8717 74.7261 37.8717Z" fill="white"/>
<path d="M77.4063 37.8717C77.7469 37.8717 78.023 37.5951 78.023 37.254C78.023 36.9128 77.7469 36.6363 77.4063 36.6363C77.0657 36.6363 76.7896 36.9128 76.7896 37.254C76.7896 37.5951 77.0657 37.8717 77.4063 37.8717Z" fill="#4B369D"/>
<path d="M70.6396 105.621H68.1608C67.8345 105.621 67.5679 105.354 67.5679 105.027V104.635C67.5679 104.308 67.8345 104.041 68.1608 104.041H70.6396C70.9659 104.041 71.2325 104.308 71.2325 104.635V105.027C71.2325 105.354 70.9659 105.621 70.6396 105.621Z" fill="#E3E5FC"/>
<path d="M76.7344 105.621H74.2555C73.9293 105.621 73.6626 105.354 73.6626 105.027V104.635C73.6626 104.308 73.9293 104.041 74.2555 104.041H76.7344C77.0606 104.041 77.3273 104.308 77.3273 104.635V105.027C77.3287 105.354 77.0606 105.621 76.7344 105.621Z" fill="#E3E5FC"/>
<path d="M82.8301 105.621H80.3512C80.025 105.621 79.7583 105.354 79.7583 105.027V104.635C79.7583 104.308 80.025 104.041 80.3512 104.041H82.8301C83.1563 104.041 83.423 104.308 83.423 104.635V105.027C83.423 105.354 83.1563 105.621 82.8301 105.621Z" fill="#E3E5FC"/>
<path d="M88.9243 105.621H86.4454C86.1192 105.621 85.8525 105.354 85.8525 105.027V104.635C85.8525 104.308 86.1192 104.041 86.4454 104.041H88.9243C89.2505 104.041 89.5172 104.308 89.5172 104.635V105.027C89.5172 105.354 89.2505 105.621 88.9243 105.621Z" fill="#E3E5FC"/>
<path d="M95.0185 105.621H92.5397C92.2134 105.621 91.9468 105.354 91.9468 105.027V104.635C91.9468 104.308 92.2134 104.041 92.5397 104.041H95.0185C95.3448 104.041 95.6114 104.308 95.6114 104.635V105.027C95.6129 105.354 95.3448 105.621 95.0185 105.621Z" fill="#E3E5FC"/>
<path d="M101.115 105.621H98.6359C98.3096 105.621 98.043 105.354 98.043 105.027V104.635C98.043 104.308 98.3096 104.041 98.6359 104.041H101.115C101.441 104.041 101.708 104.308 101.708 104.635V105.027C101.708 105.354 101.441 105.621 101.115 105.621Z" fill="#E3E5FC"/>
<path d="M107.209 105.621H104.73C104.404 105.621 104.137 105.354 104.137 105.027V104.635C104.137 104.308 104.404 104.041 104.73 104.041H107.209C107.535 104.041 107.802 104.308 107.802 104.635V105.027C107.802 105.354 107.535 105.621 107.209 105.621Z" fill="#E3E5FC"/>
<path d="M113.305 105.621H110.826C110.5 105.621 110.233 105.354 110.233 105.027V104.635C110.233 104.308 110.5 104.041 110.826 104.041H113.305C113.631 104.041 113.898 104.308 113.898 104.635V105.027C113.898 105.354 113.631 105.621 113.305 105.621Z" fill="#E3E5FC"/>
<path d="M119.399 105.621H116.92C116.594 105.621 116.327 105.354 116.327 105.027V104.635C116.327 104.308 116.594 104.041 116.92 104.041H119.399C119.725 104.041 119.992 104.308 119.992 104.635V105.027C119.992 105.354 119.725 105.621 119.399 105.621Z" fill="#E3E5FC"/>
<path d="M125.494 105.621H123.015C122.689 105.621 122.422 105.354 122.422 105.027V104.635C122.422 104.308 122.689 104.041 123.015 104.041H125.494C125.82 104.041 126.087 104.308 126.087 104.635V105.027C126.088 105.354 125.82 105.621 125.494 105.621Z" fill="#E3E5FC"/>
<path d="M131.589 105.621H129.11C128.784 105.621 128.518 105.354 128.518 105.027V104.635C128.518 104.308 128.784 104.041 129.11 104.041H131.589C131.916 104.041 132.182 104.308 132.182 104.635V105.027C132.182 105.354 131.916 105.621 131.589 105.621Z" fill="#E3E5FC"/>
<path d="M137.684 105.621H135.205C134.878 105.621 134.612 105.354 134.612 105.027V104.635C134.612 104.308 134.878 104.041 135.205 104.041H137.684C138.01 104.041 138.276 104.308 138.276 104.635V105.027C138.276 105.354 138.01 105.621 137.684 105.621Z" fill="#E3E5FC"/>
<path d="M143.778 105.621H141.299C140.973 105.621 140.706 105.354 140.706 105.027V104.635C140.706 104.308 140.973 104.041 141.299 104.041H143.778C144.104 104.041 144.371 104.308 144.371 104.635V105.027C144.372 105.354 144.106 105.621 143.778 105.621Z" fill="#E3E5FC"/>
<path d="M31.3834 67.1509H7.53488C3.39055 67.1509 0 63.7551 0 59.6043C0 55.4536 3.39055 52.0577 7.53488 52.0577H31.3834C35.5278 52.0577 38.9183 55.4536 38.9183 59.6043C38.9183 63.7536 35.5278 67.1509 31.3834 67.1509Z" fill="#E3E5FC"/>
<path d="M16.0054 63.2001C15.8653 63.2001 15.7253 63.1478 15.6166 63.0419L12.2886 59.8013L15.6061 56.4054C15.8221 56.1846 16.1752 56.1802 16.3957 56.3965C16.6161 56.6128 16.6191 56.9664 16.4046 57.1873L13.8691 59.7819L16.3942 62.2407C16.6147 62.4556 16.6191 62.8092 16.4046 63.0315C16.2973 63.1434 16.1514 63.2001 16.0054 63.2001Z" fill="#A7ADFF"/>
<path d="M22.3353 63.2C22.1952 63.2 22.0537 63.1478 21.945 63.0404C21.7245 62.8241 21.7215 62.4705 21.936 62.2496L24.4715 59.655L21.9465 57.1962C21.726 56.9814 21.7215 56.6277 21.936 56.4054C22.1505 56.1831 22.5036 56.1786 22.7256 56.3935L26.0535 59.6341L22.736 63.03C22.6258 63.1434 22.4813 63.2 22.3353 63.2Z" fill="#A7ADFF"/>
<path d="M17.4277 65.7574C17.3711 65.7574 17.3115 65.7484 17.2534 65.729C16.9614 65.6335 16.8005 65.3172 16.8973 65.0233L20.3832 54.3569C20.4786 54.063 20.7914 53.9018 21.0878 54.0003C21.3798 54.0958 21.5407 54.4121 21.4439 54.706L17.958 65.3724C17.882 65.6067 17.663 65.7574 17.4277 65.7574Z" fill="#A7ADFF"/>
<path fill-rule="evenodd" clip-rule="evenodd" d="M149.326 20.5465H159.862V9.99347H149.326V20.5465ZM159.305 19.987H149.885V10.553H159.305V19.987Z" fill="#4B369D"/>
<rect x="149.407" y="20.0698" width="14.1212" height="0.559065" transform="rotate(-45 149.407 20.0698)" fill="#4B369D"/>
<rect x="149.407" y="10.4714" width="0.559065" height="14.1212" transform="rotate(-45 149.407 10.4714)" fill="#4B369D"/>
<path fill-rule="evenodd" clip-rule="evenodd" d="M159.304 20.5465H169.84V9.99347H159.304V20.5465ZM169.281 19.987H159.862V10.553H169.281V19.987Z" fill="#4B369D"/>
<rect x="159.384" y="20.0696" width="14.1212" height="0.559065" transform="rotate(-45 159.384 20.0696)" fill="#4B369D"/>
<rect x="159.384" y="10.4713" width="0.559065" height="14.1212" transform="rotate(-45 159.384 10.4713)" fill="#4B369D"/>
<path fill-rule="evenodd" clip-rule="evenodd" d="M129.371 120.478H139.908V109.925H129.371V120.478ZM139.35 119.919H129.931V110.485H139.35V119.919Z" fill="#4B369D"/>
<rect x="129.45" y="120.001" width="14.1212" height="0.559065" transform="rotate(-45 129.45 120.001)" fill="#4B369D"/>
<rect x="129.451" y="110.404" width="0.559065" height="14.1212" transform="rotate(-45 129.451 110.404)" fill="#4B369D"/>
<path fill-rule="evenodd" clip-rule="evenodd" d="M129.371 110.485H139.908V99.9319H129.371V110.485ZM139.35 109.925H129.931V100.491H139.35V109.925Z" fill="#4B369D"/>
<rect x="129.45" y="110.008" width="14.1212" height="0.559065" transform="rotate(-45 129.45 110.008)" fill="#4B369D"/>
<rect x="129.451" y="100.411" width="0.559065" height="14.1212" transform="rotate(-45 129.451 100.411)" fill="#4B369D"/>
<path fill-rule="evenodd" clip-rule="evenodd" d="M129.371 100.491H139.908V89.9384H129.371V100.491ZM139.35 99.9334H129.931V90.4994H139.35V99.9334Z" fill="#4B369D"/>
<rect x="129.451" y="100.016" width="14.1212" height="0.559065" transform="rotate(-45 129.451 100.016)" fill="#4B369D"/>
<rect x="129.451" y="90.4173" width="0.559065" height="14.1212" transform="rotate(-45 129.451 90.4173)" fill="#4B369D"/>
<path fill-rule="evenodd" clip-rule="evenodd" d="M129.371 90.4979H139.908V79.9449H129.371V90.4979ZM139.35 89.9399H129.931V80.5059H139.35V89.9399Z" fill="#4B369D"/>
<rect x="129.451" y="90.0224" width="14.1212" height="0.559065" transform="rotate(-45 129.451 90.0224)" fill="#4B369D"/>
<rect x="129.451" y="80.424" width="0.559065" height="14.1212" transform="rotate(-45 129.451 80.424)" fill="#4B369D"/>
<path fill-rule="evenodd" clip-rule="evenodd" d="M129.371 80.5059H139.908V69.9529H129.371V80.5059ZM139.35 79.9464H129.931V70.5124H139.35V79.9464Z" fill="#4B369D"/>
<rect x="129.451" y="80.029" width="14.1212" height="0.559065" transform="rotate(-45 129.451 80.029)" fill="#4B369D"/>
<rect x="129.451" y="70.4306" width="0.559065" height="14.1212" transform="rotate(-45 129.451 70.4306)" fill="#4B369D"/>
<path fill-rule="evenodd" clip-rule="evenodd" d="M129.371 70.5124H139.908V59.9594H129.371V70.5124ZM139.35 69.9529H129.931V60.5189H139.35V69.9529Z" fill="#4B369D"/>
<rect x="129.451" y="70.0357" width="14.1212" height="0.559065" transform="rotate(-45 129.451 70.0357)" fill="#4B369D"/>
<rect x="129.451" y="60.4373" width="0.559065" height="14.1212" transform="rotate(-45 129.451 60.4373)" fill="#4B369D"/>
<path fill-rule="evenodd" clip-rule="evenodd" d="M129.371 60.5189H139.908V49.9659H129.371V60.5189ZM139.35 59.9594H129.931V50.5254H139.35V59.9594Z" fill="#4B369D"/>
<rect x="129.451" y="60.0424" width="14.1212" height="0.559065" transform="rotate(-45 129.451 60.0424)" fill="#4B369D"/>
<rect x="129.452" y="50.445" width="0.559065" height="14.1212" transform="rotate(-45 129.452 50.445)" fill="#4B369D"/>
<path fill-rule="evenodd" clip-rule="evenodd" d="M129.371 50.5255H139.908V39.9725H129.371V50.5255ZM139.35 49.9659H129.931V40.532H139.35V49.9659Z" fill="#4B369D"/>
<rect x="129.452" y="50.0501" width="14.1212" height="0.559065" transform="rotate(-45 129.452 50.0501)" fill="#4B369D"/>
<rect x="129.452" y="40.4517" width="0.559065" height="14.1212" transform="rotate(-45 129.452 40.4517)" fill="#4B369D"/>
<path fill-rule="evenodd" clip-rule="evenodd" d="M129.371 40.5319H139.908V29.9789H129.371V40.5319ZM139.35 39.974H129.931V30.54H139.35V39.974Z" fill="#4B369D"/>
<rect x="129.451" y="40.0568" width="14.1212" height="0.559065" transform="rotate(-45 129.451 40.0568)" fill="#4B369D"/>
<rect x="129.451" y="30.4584" width="0.559065" height="14.1212" transform="rotate(-45 129.451 30.4584)" fill="#4B369D"/>
<path fill-rule="evenodd" clip-rule="evenodd" d="M129.371 30.5399H139.908V19.9869H129.371V30.5399ZM139.35 29.9804H129.931V20.5465H139.35V29.9804Z" fill="#4B369D"/>
<rect x="129.451" y="30.0634" width="14.1212" height="0.559065" transform="rotate(-45 129.451 30.0634)" fill="#4B369D"/>
<rect x="129.451" y="20.465" width="0.559065" height="14.1212" transform="rotate(-45 129.451 20.465)" fill="#4B369D"/>
<path fill-rule="evenodd" clip-rule="evenodd" d="M129.371 20.5465H139.908V9.99347H129.371V20.5465ZM139.35 19.987H129.931V10.553H139.35V19.987Z" fill="#4B369D"/>
<rect x="129.451" y="20.0701" width="14.1212" height="0.559065" transform="rotate(-45 129.451 20.0701)" fill="#4B369D"/>
<rect x="129.451" y="10.4717" width="0.559065" height="14.1212" transform="rotate(-45 129.451 10.4717)" fill="#4B369D"/>
<path fill-rule="evenodd" clip-rule="evenodd" d="M129.372 10.553H139.908V0H129.372V10.553ZM139.35 9.99349H129.931V0.559504H139.35V9.99349Z" fill="#4B369D"/>
<rect x="129.451" y="10.0767" width="14.1212" height="0.559065" transform="rotate(-45 129.451 10.0767)" fill="#4B369D"/>
<rect x="129.452" y="0.47937" width="0.559065" height="14.1212" transform="rotate(-45 129.452 0.47937)" fill="#4B369D"/>
<path fill-rule="evenodd" clip-rule="evenodd" d="M139.348 20.5465H149.884V9.99347H139.348V20.5465ZM149.327 19.987H139.908V10.553H149.327V19.987Z" fill="#4B369D"/>
<rect x="139.429" y="20.0699" width="14.1212" height="0.559065" transform="rotate(-45 139.429 20.0699)" fill="#4B369D"/>
<rect x="139.429" y="10.4716" width="0.559065" height="14.1212" transform="rotate(-45 139.429 10.4716)" fill="#4B369D"/>
<path fill-rule="evenodd" clip-rule="evenodd" d="M119.393 20.5465H129.93V9.99347H119.393V20.5465ZM129.372 19.987H119.953V10.553H129.372V19.987Z" fill="#4B369D"/>
<rect x="119.474" y="20.0692" width="14.1212" height="0.559065" transform="rotate(-45 119.474 20.0692)" fill="#4B369D"/>
<rect x="119.473" y="10.4719" width="0.559065" height="14.1212" transform="rotate(-45 119.473 10.4719)" fill="#4B369D"/>
<path fill-rule="evenodd" clip-rule="evenodd" d="M109.415 20.5465H119.952V9.99347H109.415V20.5465ZM119.393 19.987H109.974V10.553H119.393V19.987Z" fill="#4B369D"/>
<rect x="109.497" y="20.0693" width="14.1212" height="0.559065" transform="rotate(-45 109.497 20.0693)" fill="#4B369D"/>
<rect x="109.496" y="10.4719" width="0.559065" height="14.1212" transform="rotate(-45 109.496 10.4719)" fill="#4B369D"/>
<path fill-rule="evenodd" clip-rule="evenodd" d="M99.1143 20.5465H110.044V9.59961L99.1143 20.5465ZM109.485 19.987H100.461L109.485 10.9484V19.987Z" fill="#4B369D"/>
<rect width="14.1212" height="0.559065" transform="matrix(0.706558 -0.707655 0.706558 0.707655 99.5884 20.0692)" fill="#4B369D"/>
<rect x="99.5083" y="25.2628" width="0.559504" height="35.2368" fill="#4B369D"/>
<path d="M101.735 63.1867H98.2257C97.2232 63.1867 96.4023 62.3646 96.4023 61.3604V57.8453C96.4023 56.8411 97.2232 56.019 98.2257 56.019H101.735C102.738 56.019 103.559 56.8411 103.559 57.8453V61.3604C103.559 62.3646 102.738 63.1867 101.735 63.1867Z" fill="#4B369D"/>
<path d="M98.7534 70.8138C96.4935 70.8138 95.2288 68.8786 95.0098 67.0733L95.5639 67.0062C95.7546 68.5743 96.8346 70.2558 98.7534 70.2558C98.7608 70.2558 98.7683 70.2558 98.7742 70.2558C100.279 70.2453 101.891 69.1353 101.892 67.4985C101.892 65.5306 99.8975 64.7115 99.8781 64.7025L99.7023 64.6324V62.0348H100.261V64.2624C100.812 64.5339 102.451 65.5067 102.451 67.497C102.451 69.5307 100.544 70.8018 98.7787 70.8138C98.7698 70.8138 98.7608 70.8138 98.7534 70.8138Z" fill="#4B369D"/>
<path d="M119.808 28.1751H90.8627C88.9976 28.1751 87.4722 26.6473 87.4722 24.7793C87.4722 22.9113 88.9976 21.3835 90.8627 21.3835H119.808C121.673 21.3835 123.198 22.9113 123.198 24.7793C123.197 26.6473 121.671 28.1751 119.808 28.1751Z" fill="#978CFF"/>
<path d="M174.278 131H129.021C125.875 131 123.299 128.422 123.299 125.269V122.697C123.299 119.546 125.874 116.966 129.021 116.966H174.278C177.424 116.966 180 119.544 180 122.697V125.269C179.999 128.42 177.424 131 174.278 131Z" fill="#A7ADFF"/>
<path d="M167.318 122.613H144.432C143.74 122.613 143.176 122.048 143.176 121.356C143.176 120.663 143.74 120.098 144.432 120.098H167.318C168.009 120.098 168.574 120.663 168.574 121.356C168.574 122.048 168.009 122.613 167.318 122.613Z" fill="white"/>
<path d="M156.632 127.506H144.432C143.74 127.506 143.176 126.94 143.176 126.248C143.176 125.556 143.74 124.99 144.432 124.99H156.632C157.323 124.99 157.888 125.556 157.888 126.248C157.888 126.939 157.323 127.506 156.632 127.506Z" fill="white"/>
<path d="M133.616 128.623C135.967 128.623 137.872 126.715 137.872 124.361C137.872 122.006 135.967 120.098 133.616 120.098C131.266 120.098 129.36 122.006 129.36 124.361C129.36 126.715 131.266 128.623 133.616 128.623Z" fill="white"/>
<path d="M80.3734 124.111H20.1331C18.1607 124.111 16.5474 122.496 16.5474 120.52V76.8251C16.5474 74.8497 18.1607 73.2338 20.1331 73.2338H80.3734C82.3458 73.2338 83.9591 74.8497 83.9591 76.8251V120.52C83.9591 122.496 82.3458 124.111 80.3734 124.111Z" fill="#A7ADFF"/>
<path d="M78.6228 119.868H21.5928C19.6934 119.868 18.1396 118.312 18.1396 116.41V78.9035C18.1396 77.0012 19.6934 75.445 21.5928 75.445H78.6243C80.5237 75.445 82.0774 77.0012 82.0774 78.9035V116.41C82.0759 118.312 80.5222 119.868 78.6228 119.868Z" fill="#E3E5FC"/>
<path d="M53.8138 121.791H49.0855C48.9708 121.791 48.877 121.697 48.877 121.582C48.877 121.468 48.9708 121.374 49.0855 121.374H53.8138C53.9285 121.374 54.0224 121.468 54.0224 121.582C54.0239 121.697 53.93 121.791 53.8138 121.791Z" fill="#E3E5FC"/>
<path d="M20.1451 74.9437C20.405 74.9437 20.6158 74.7326 20.6158 74.4722C20.6158 74.2118 20.405 74.0007 20.1451 74.0007C19.8851 74.0007 19.6743 74.2118 19.6743 74.4722C19.6743 74.7326 19.8851 74.9437 20.1451 74.9437Z" fill="#E3E5FC"/>
<path d="M22.1695 74.9437C22.4295 74.9437 22.6402 74.7326 22.6402 74.4722C22.6402 74.2118 22.4295 74.0007 22.1695 74.0007C21.9095 74.0007 21.6987 74.2118 21.6987 74.4722C21.6987 74.7326 21.9095 74.9437 22.1695 74.9437Z" fill="white"/>
<path d="M24.2134 74.9437C24.4734 74.9437 24.6842 74.7326 24.6842 74.4722C24.6842 74.2118 24.4734 74.0007 24.2134 74.0007C23.9534 74.0007 23.7427 74.2118 23.7427 74.4722C23.7427 74.7326 23.9534 74.9437 24.2134 74.9437Z" fill="#4B369D"/>
<path d="M52.9203 100.612H24.3033C23.9964 100.612 23.7446 100.36 23.7446 100.053C23.7446 99.7454 23.9964 99.4932 24.3033 99.4932H52.9203C53.2272 99.4932 53.479 99.7454 53.479 100.053C53.479 100.36 53.2287 100.612 52.9203 100.612Z" fill="white"/>
<path d="M52.9198 103.177H24.3028C23.9959 103.177 23.7441 102.925 23.7441 102.618C23.7441 102.31 23.9959 102.058 24.3028 102.058H52.9198C53.2267 102.058 53.4785 102.31 53.4785 102.618C53.4785 102.925 53.2282 103.177 52.9198 103.177Z" fill="white"/>
<path d="M52.9198 105.742H24.3028C23.9959 105.742 23.7441 105.49 23.7441 105.182C23.7441 104.875 23.9959 104.623 24.3028 104.623H52.9198C53.2267 104.623 53.4785 104.875 53.4785 105.182C53.4785 105.49 53.2282 105.742 52.9198 105.742Z" fill="white"/>
<path d="M52.9198 108.633H24.3028C23.9959 108.633 23.7441 108.381 23.7441 108.074C23.7441 107.766 23.9959 107.514 24.3028 107.514H52.9198C53.2267 107.514 53.4785 107.766 53.4785 108.074C53.4785 108.381 53.2282 108.633 52.9198 108.633Z" fill="white"/>
<path d="M52.9198 111.198H24.3028C23.9959 111.198 23.7441 110.946 23.7441 110.639C23.7441 110.331 23.9959 110.079 24.3028 110.079H52.9198C53.2267 110.079 53.4785 110.331 53.4785 110.639C53.4785 110.946 53.2282 111.198 52.9198 111.198Z" fill="white"/>
<path d="M52.9198 113.763H24.3028C23.9959 113.763 23.7441 113.511 23.7441 113.203C23.7441 112.896 23.9959 112.644 24.3028 112.644H52.9198C53.2267 112.644 53.4785 112.896 53.4785 113.203C53.4785 113.511 53.2282 113.763 52.9198 113.763Z" fill="white"/>
<path d="M30.4418 94.5502H46.7808C50.4648 94.5502 53.4785 91.5318 53.4785 87.8421V86.6425C53.4785 82.9528 50.4648 79.9344 46.7808 79.9344H30.4418C26.7578 79.9344 23.7441 82.9528 23.7441 86.6425V87.8421C23.7427 91.5318 26.7578 94.5502 30.4418 94.5502Z" fill="white"/>
<path d="M66.4672 105.525H69.7565C73.4405 105.525 76.4541 102.507 76.4541 98.8173V86.6425C76.4541 82.9528 73.4405 79.9344 69.7565 79.9344H66.4672C62.7832 79.9344 59.7695 82.9528 59.7695 86.6425V98.8173C59.768 102.507 62.7832 105.525 66.4672 105.525Z" fill="white"/>
<path d="M62.7817 113.094H73.4435C75.1 113.094 76.4556 111.737 76.4556 110.078C76.4556 108.418 75.1 107.061 73.4435 107.061H62.7817C61.1252 107.061 59.7695 108.418 59.7695 110.078C59.768 111.738 61.1237 113.094 62.7817 113.094Z" fill="white"/>
</svg>
