<svg width="159" height="132" viewBox="0 0 159 132" fill="none" xmlns="http://www.w3.org/2000/svg">
<path d="M153.035 100.613H31.4507C28.1692 100.613 25.4849 97.9286 25.4849 94.6471V5.96587C25.4849 2.68437 28.1692 0 31.4507 0H153.035C156.316 0 159 2.68437 159 5.96587V94.6471C159.002 97.9273 156.316 100.613 153.035 100.613Z" fill="#A7ADFF"/>
<path d="M149.306 92.2201H34.6045C31.323 92.2201 28.6387 89.5358 28.6387 86.2543V10.3407C28.6387 7.05925 31.323 4.37488 34.6045 4.37488H149.306C152.587 4.37488 155.271 7.05925 155.271 10.3407V86.2543C155.271 89.5358 152.587 92.2201 149.306 92.2201Z" fill="#E3E5FC"/>
<path d="M99.2947 96.0232H89.9306C89.7024 96.0232 89.5166 95.8361 89.5166 95.6092C89.5166 95.381 89.7037 95.1952 89.9306 95.1952H99.2947C99.523 95.1952 99.7087 95.3823 99.7087 95.6092C99.7087 95.8374 99.523 96.0232 99.2947 96.0232Z" fill="#E3E5FC"/>
<path d="M32.6087 3.37967C33.1232 3.37967 33.5403 2.96262 33.5403 2.44817C33.5403 1.93371 33.1232 1.51666 32.6087 1.51666C32.0943 1.51666 31.6772 1.93371 31.6772 2.44817C31.6772 2.96262 32.0943 3.37967 32.6087 3.37967Z" fill="#E3E5FC"/>
<path d="M36.619 3.37967C37.1335 3.37967 37.5505 2.96262 37.5505 2.44817C37.5505 1.93371 37.1335 1.51666 36.619 1.51666C36.1045 1.51666 35.6875 1.93371 35.6875 2.44817C35.6875 2.96262 36.1045 3.37967 36.619 3.37967Z" fill="white"/>
<path d="M40.6659 3.37967C41.1803 3.37967 41.5974 2.96262 41.5974 2.44817C41.5974 1.93371 41.1803 1.51666 40.6659 1.51666C40.1514 1.51666 39.7344 1.93371 39.7344 2.44817C39.7344 2.96262 40.1514 3.37967 40.6659 3.37967Z" fill="#4B369D"/>
<path d="M63.5474 54.14H40.8424C40.2333 54.14 39.7344 53.6411 39.7344 53.032C39.7344 52.4229 40.2333 51.924 40.8424 51.924H63.5474C64.1565 51.924 64.6554 52.4229 64.6554 53.032C64.6554 53.6411 64.1565 54.14 63.5474 54.14Z" fill="white"/>
<path d="M63.5469 59.2129H40.8419C40.2328 59.2129 39.7339 58.7139 39.7339 58.1049C39.7339 57.4958 40.2328 56.9969 40.8419 56.9969H63.5469C64.156 56.9969 64.6549 57.4958 64.6549 58.1049C64.6549 58.7139 64.156 59.2129 63.5469 59.2129Z" fill="white"/>
<path d="M63.5469 64.2845H40.8419C40.2328 64.2845 39.7339 63.7855 39.7339 63.1765C39.7339 62.5674 40.2328 62.0685 40.8419 62.0685H63.5469C64.156 62.0685 64.6549 62.5674 64.6549 63.1765C64.6549 63.7869 64.156 64.2845 63.5469 64.2845Z" fill="white"/>
<path d="M63.5469 70.0034H40.8419C40.2328 70.0034 39.7339 69.5045 39.7339 68.8955C39.7339 68.2864 40.2328 67.7875 40.8419 67.7875H63.5469C64.156 67.7875 64.6549 68.2864 64.6549 68.8955C64.6549 69.5045 64.156 70.0034 63.5469 70.0034Z" fill="white"/>
<path d="M63.5469 75.0749H40.8419C40.2328 75.0749 39.7339 74.576 39.7339 73.9669C39.7339 73.3579 40.2328 72.8589 40.8419 72.8589H63.5469C64.156 72.8589 64.6549 73.3579 64.6549 73.9669C64.6549 74.5773 64.156 75.0749 63.5469 75.0749Z" fill="white"/>
<path d="M63.5469 80.1478H40.8419C40.2328 80.1478 39.7339 79.6489 39.7339 79.0398C39.7339 78.4307 40.2328 77.9318 40.8419 77.9318H63.5469C64.156 77.9318 64.6549 78.4307 64.6549 79.0398C64.6549 79.6489 64.156 80.1478 63.5469 80.1478Z" fill="white"/>
<path d="M97.524 54.14H74.8189C74.2099 54.14 73.7109 53.6411 73.7109 53.032C73.7109 52.4229 74.2099 51.924 74.8189 51.924H97.524C98.1331 51.924 98.632 52.4229 98.632 53.032C98.632 53.6411 98.1331 54.14 97.524 54.14Z" fill="white"/>
<path d="M97.5235 59.2129H74.8184C74.2094 59.2129 73.7104 58.7139 73.7104 58.1049C73.7104 57.4958 74.2094 56.9969 74.8184 56.9969H97.5235C98.1326 56.9969 98.6315 57.4958 98.6315 58.1049C98.6315 58.7139 98.1326 59.2129 97.5235 59.2129Z" fill="white"/>
<path d="M97.5235 64.2845H74.8184C74.2094 64.2845 73.7104 63.7855 73.7104 63.1765C73.7104 62.5674 74.2094 62.0685 74.8184 62.0685H97.5235C98.1326 62.0685 98.6315 62.5674 98.6315 63.1765C98.6315 63.7869 98.1326 64.2845 97.5235 64.2845Z" fill="white"/>
<path d="M97.5235 70.0034H74.8184C74.2094 70.0034 73.7104 69.5045 73.7104 68.8955C73.7104 68.2864 74.2094 67.7875 74.8184 67.7875H97.5235C98.1326 67.7875 98.6315 68.2864 98.6315 68.8955C98.6315 69.5045 98.1326 70.0034 97.5235 70.0034Z" fill="white"/>
<path d="M97.5235 75.0749H74.8184C74.2094 75.0749 73.7104 74.576 73.7104 73.9669C73.7104 73.3579 74.2094 72.8589 74.8184 72.8589H97.5235C98.1326 72.8589 98.6315 73.3579 98.6315 73.9669C98.6315 74.5773 98.1326 75.0749 97.5235 75.0749Z" fill="white"/>
<path d="M97.5235 80.1478H74.8184C74.2094 80.1478 73.7104 79.6489 73.7104 79.0398C73.7104 78.4307 74.2094 77.9318 74.8184 77.9318H97.5235C98.1326 77.9318 98.6315 78.4307 98.6315 79.0398C98.6315 79.6489 98.1326 80.1478 97.5235 80.1478Z" fill="white"/>
<path d="M127.98 32.0811C125.366 31.427 124.711 23.5848 122.097 23.5848C116.354 24.1063 114.364 31.7162 111.13 37.422C111.554 39.7733 113.617 41.574 116.086 41.574H139.098C141.87 41.574 144.138 39.3062 144.138 36.5343V20.0353C143.339 20.099 142.523 20.3856 141.705 20.9694C137.13 24.8918 133.862 33.3882 127.98 32.0811Z" fill="#A7ADFF"/>
<path d="M139.139 13.248H116.127C113.355 13.248 111.087 15.5158 111.087 18.2877V36.5343C111.087 36.8368 111.119 37.1327 111.171 37.422C114.403 31.7149 116.395 24.1063 122.138 23.5848C124.752 23.5848 125.406 31.4283 128.02 32.0811C133.903 33.3882 137.171 24.8918 141.746 20.9694C142.563 20.3856 143.38 20.0976 144.178 20.0353V18.2877C144.178 15.5158 141.911 13.248 139.139 13.248Z" fill="white"/>
<path d="M130.902 24.9741C132.504 24.9741 133.802 23.6754 133.802 22.0734C133.802 20.4714 132.504 19.1727 130.902 19.1727C129.3 19.1727 128.001 20.4714 128.001 22.0734C128.001 23.6754 129.3 24.9741 130.902 24.9741Z" fill="#A7ADFF"/>
<path d="M45.7017 42.1538H92.6644C95.9459 42.1538 98.6302 39.4695 98.6302 36.188V19.2166C98.6302 15.9351 95.9459 13.2507 92.6644 13.2507H45.7017C42.4202 13.2507 39.7358 15.9351 39.7358 19.2166V36.188C39.7345 39.4681 42.4202 42.1538 45.7017 42.1538Z" fill="white"/>
<path d="M117.055 63.8584H138.17C141.452 63.8584 144.136 61.174 144.136 57.8925C144.136 54.611 141.452 51.9266 138.17 51.9266H117.055C113.773 51.9266 111.089 54.611 111.089 57.8925C111.089 61.1727 113.773 63.8584 117.055 63.8584Z" fill="white"/>
<path d="M117.055 78.8261H138.17C141.452 78.8261 144.136 76.1417 144.136 72.8602C144.136 69.5787 141.452 66.8943 138.17 66.8943H117.055C113.773 66.8943 111.089 69.5787 111.089 72.8602C111.089 76.1417 113.773 78.8261 117.055 78.8261Z" fill="white"/>
<path d="M94.6134 130.982C118.867 130.982 138.528 129.642 138.528 127.987C138.528 126.333 118.867 124.993 94.6134 124.993C70.36 124.993 50.6987 126.333 50.6987 127.987C50.6987 129.642 70.36 130.982 94.6134 130.982Z" fill="#E3E5FC"/>
<path d="M43.4543 119.771H21.0796C19.8257 119.771 18.8013 118.745 18.8013 117.493V116.634C18.8013 115.38 19.827 114.356 21.0796 114.356H43.4543C44.7082 114.356 45.7326 115.382 45.7326 116.634V117.493C45.7326 118.745 44.7069 119.771 43.4543 119.771Z" fill="#A7ADFF"/>
<path d="M43.4538 125.659H21.0791C19.8252 125.659 18.8008 124.633 18.8008 123.38V122.522C18.8008 121.268 19.8265 120.243 21.0791 120.243H43.4538C44.7077 120.243 45.7321 121.269 45.7321 122.522V123.38C45.7321 124.634 44.7064 125.659 43.4538 125.659Z" fill="#A7ADFF"/>
<path d="M43.4538 131.606H21.0791C19.8252 131.606 18.8008 130.58 18.8008 129.328V128.469C18.8008 127.215 19.8265 126.191 21.0791 126.191H43.4538C44.7077 126.191 45.7321 127.217 45.7321 128.469V129.328C45.7321 130.58 44.7064 131.606 43.4538 131.606Z" fill="#A7ADFF"/>
<path d="M20.9965 117.641C21.3395 117.641 21.6175 117.363 21.6175 117.02C21.6175 116.677 21.3395 116.399 20.9965 116.399C20.6535 116.399 20.3755 116.677 20.3755 117.02C20.3755 117.363 20.6535 117.641 20.9965 117.641Z" fill="white"/>
<path d="M43.37 117.641C43.713 117.641 43.991 117.363 43.991 117.02C43.991 116.677 43.713 116.399 43.37 116.399C43.0271 116.399 42.749 116.677 42.749 117.02C42.749 117.363 43.0271 117.641 43.37 117.641Z" fill="white"/>
<path d="M21.121 123.318C21.464 123.318 21.742 123.04 21.742 122.697C21.742 122.354 21.464 122.076 21.121 122.076C20.778 122.076 20.5 122.354 20.5 122.697C20.5 123.04 20.778 123.318 21.121 123.318Z" fill="white"/>
<path d="M43.4945 123.318C43.8375 123.318 44.1155 123.04 44.1155 122.697C44.1155 122.354 43.8375 122.076 43.4945 122.076C43.1516 122.076 42.8735 122.354 42.8735 122.697C42.8735 123.04 43.1516 123.318 43.4945 123.318Z" fill="white"/>
<path d="M21.121 129.486C21.464 129.486 21.742 129.208 21.742 128.865C21.742 128.522 21.464 128.244 21.121 128.244C20.778 128.244 20.5 128.522 20.5 128.865C20.5 129.208 20.778 129.486 21.121 129.486Z" fill="white"/>
<path d="M43.4945 129.486C43.8375 129.486 44.1155 129.208 44.1155 128.865C44.1155 128.522 43.8375 128.244 43.4945 128.244C43.1516 128.244 42.8735 128.522 42.8735 128.865C42.8735 129.208 43.1516 129.486 43.4945 129.486Z" fill="white"/>
<path d="M59.4738 19.7619C59.5508 19.7089 59.6264 19.6558 59.7034 19.604C62.1184 17.9626 65.0085 16.6025 67.8733 17.1638C72.9236 18.1524 75.2444 23.7321 78.4662 27.0945C80.7777 29.5069 84.3564 31.3142 87.8197 30.9559C90.7217 30.656 91.2312 27.5139 90.5359 25.1479C90.2785 24.2748 89.8804 23.4389 89.1586 22.8577C88.4938 22.3216 86.8523 21.5825 85.9885 22.0522C87.4773 21.2441 89.4133 21.6462 90.7416 22.6971C95.2332 26.2519 94.1 33.8552 89.2859 36.5277C85.5573 38.5964 81.0046 36.7758 78.0641 34.1565C74.7415 31.1961 73.7104 26.6036 70.6174 23.4627C69.7894 22.6228 68.8592 21.885 67.6053 21.9899C65.1226 22.1982 64.7152 24.8295 63.0486 26.1418C62.6187 26.4802 62.0521 26.6885 61.52 26.5624C61.1285 26.4696 60.8008 26.2121 60.4558 26.0038C58.8887 25.0524 54.4275 25.2196 56.6926 22.2659C57.4569 21.2707 58.4441 20.4772 59.4738 19.7619Z" fill="url(#paint0_linear)"/>
<path d="M32.6551 47.4164C31.4887 48.7155 29.98 50.2706 29.3006 51.9333C29.2462 52.0673 29.1998 52.2252 29.2661 52.3539C30.1419 54.0391 43.1975 41.8115 44.5842 40.5416C47.5021 37.8678 50.2196 35.8164 52.7488 32.7485C53.2344 32.1594 53.732 31.5238 53.8541 30.7542C53.9257 30.2765 51.6965 31.269 51.2639 31.4893C47.9532 33.1718 44.0667 36.1242 41.3624 38.6255C38.3436 41.4187 35.4138 44.3446 32.6551 47.4164Z" fill="#4B369D"/>
<path d="M58.2079 25.7609C58.1322 25.1359 57.981 24.5269 57.7421 23.9536C57.1755 22.5909 56.1432 21.2918 54.6252 20.9959C57.088 22.5471 54.7287 25.5698 52.9559 26.7946C52.518 27.0971 52.0403 27.3572 51.5162 27.5695C50.1879 28.1069 48.4258 28.5222 48.0874 30.1437C52.4357 30.2592 55.6774 28.4718 58.2079 25.7609Z" fill="url(#paint1_linear)"/>
<path d="M48.0875 30.1424C48.0849 30.157 48.0796 30.1703 48.0769 30.1849C47.5833 32.783 49.2605 35.3957 52.124 34.9194C56.1114 34.2546 58.6844 29.6767 58.208 25.7596C55.6775 28.4718 52.4359 30.2592 48.0875 30.1424Z" fill="#A7ADFF"/>
<path d="M9.4125 119.433L10.2578 127.43L7.61319 127.988L7.22705 119.591C7.22705 119.591 8.62696 119.08 9.4125 119.433Z" fill="#EAC2AB"/>
<path d="M20.3594 131.671C20.3594 131.671 18.3783 132.11 14.6894 131.974C11.0006 131.837 6.90301 131.517 6.22229 130.892C5.54025 130.266 5.57873 125.598 6.79818 125.734C8.01763 125.87 8.29496 127.688 10.6211 126.353C12.6141 125.209 13.8017 127.917 16.9333 128.954C20.0635 129.99 21.332 130.405 20.3594 131.671Z" fill="url(#paint2_linear)"/>
<path d="M16.3907 121.643C16.2673 121.355 15.9436 121.141 15.6623 120.916C13.092 118.868 13.7196 115.743 14.131 113.012C15.1063 106.534 14.062 100.004 13.6719 93.5245C13.2924 87.2004 13.9253 80.8537 15.3703 74.6888C15.8958 72.4489 16.6203 68.9856 13.1557 69.6411C11.5143 69.9516 9.89411 69.8906 8.258 69.604C7.39683 69.4527 8.27525 69.1727 7.39683 69.4527C4.4046 70.4081 3.286 76.0635 3.90037 78.034C5.1238 81.9577 5.52188 85.7235 5.72092 89.8781C6.00223 95.7697 6.98283 101.668 6.28353 107.514C5.94119 110.379 5.54311 113.236 5.16095 116.096C4.93803 117.764 3.54343 121.418 4.47891 122.928C5.76338 125.001 11.4864 123.244 13.3985 123.197C14.8356 123.16 16.8101 122.621 16.3907 121.643Z" fill="#4B369D"/>
<path d="M25.7719 102.162L24.0098 110.118L21.2896 109.802L23.621 101.61C23.621 101.611 25.131 101.568 25.7719 102.162Z" fill="#EAC2AB"/>
<path d="M34.6004 113.979C34.6004 113.979 32.5968 114.442 28.8588 114.339C25.1195 114.235 20.9649 113.95 20.2683 113.322C19.5716 112.695 19.5663 107.964 20.803 108.09C22.0397 108.216 22.3383 110.055 24.6816 108.681C26.6893 107.504 27.9193 110.236 31.1026 111.256C34.2859 112.277 35.5744 112.688 34.6004 113.979Z" fill="url(#paint3_linear)"/>
<path d="M35.6457 77.0481C33.8902 74.3942 27.8898 74.4234 22.3844 75.1015L15.5521 74.6981L14.6219 72.1079C14.6219 72.1079 3.75169 75.4279 3.73975 75.4319C4.08342 75.3761 4.02902 79.7563 4.22806 80.1371C5.78454 83.1188 10.2098 85.5842 13.7594 85.6306C17.9764 85.6864 21.9545 84.4709 25.8955 83.1692C33.0516 80.8072 23.016 95.7232 20.739 100.447C18.462 105.171 20.9646 104.922 26.6465 104.673C32.3297 104.425 29.6454 104.798 30.614 100.852C31.584 96.9042 39.1183 82.2987 35.6457 77.0481Z" fill="#5A54FF"/>
<path d="M14.1651 41.5502C14.1651 41.5502 13.349 47.5293 13.3477 47.5293C11.904 47.9539 10.3913 48.7647 8.87061 48.762C8.93961 47.6527 10.025 46.3842 10.524 45.3372C11.129 44.0673 11.555 42.7524 11.4886 41.3286C11.3135 37.6079 14.1651 41.5502 14.1651 41.5502Z" fill="#D4A79A"/>
<path d="M21.3665 29.0544C21.6146 29.1367 22.3604 31.9551 21.0348 33.7783C19.7092 35.6015 20.4788 35.3534 19.1824 36.5954C17.886 37.8387 16.9744 38.1081 16.9744 38.1081L15.4829 38.6667L15.6488 35.6002L17.1296 30.7104L21.8004 29.0544" fill="#27197A"/>
<path d="M17.8475 29.7113C17.8448 29.7179 20.1948 31.3116 18.9488 35.1238C17.6166 39.2041 15.6939 42.621 14.4612 42.2667C11.051 41.2887 10.0372 38.7397 9.00749 36.5383C7.74558 33.8394 11.189 27.7899 11.189 27.7899L14.0764 26.5267L17.8475 29.7113Z" fill="#EAC2AB"/>
<path d="M23.1608 28.7878C23.5443 27.8364 23.1157 26.0477 22.4549 25.3868C22.2001 25.1321 21.8671 24.9556 21.5194 24.9609C21.258 24.9649 20.9926 25.0697 20.7392 25.006C19.9775 24.8136 19.9789 24.1647 19.2809 23.8741C18.7607 23.6579 18.2074 24.0997 17.6514 24.1833C17.2321 24.2457 16.8155 24.0997 16.4081 23.979C15.2629 23.638 14.2293 22.9904 13.0457 22.7476C12.0478 22.5432 10.9876 22.5698 10.0349 22.9838C9.04098 23.4164 8.28198 24.2988 7.82817 25.3537C7.55748 25.984 7.42876 26.7005 7.54819 27.3786C7.44999 26.8213 6.41897 27.3268 6.24249 27.5285C5.54851 28.3207 3.79961 30.6388 4.0504 31.6473C4.24944 32.4461 3.63242 33.1693 3.80758 33.9787C4.0159 34.942 6.53574 35.498 6.9869 36.3738C7.5044 37.3783 8.64954 37.9621 9.69118 37.7817C9.44835 36.8913 9.20817 35.981 9.22675 35.0469C9.24533 34.1127 8.36159 29.8161 13.0085 29.2867C14.8556 29.0757 16.9216 30.7728 18.7368 30.9958C19.5994 31.1019 20.4791 31.0051 21.3177 30.7423C21.9653 30.5393 22.6526 29.6556 23.0533 29.0001C23.0958 28.9324 23.1316 28.8621 23.1608 28.7878Z" fill="#4B369D"/>
<path d="M42.8586 41.8195C42.7458 41.7717 42.6277 41.8713 42.5454 41.9628C41.797 42.7908 41.0473 43.6175 40.2989 44.4455C40.153 44.6074 40.0004 44.7733 39.804 44.8675C39.6076 44.9617 39.3528 44.9657 39.1896 44.821C38.9932 44.6472 38.9999 44.3433 39.0224 44.0806C39.0556 43.6838 39.7138 42.897 39.0848 42.7232C38.1918 43.1571 37.3372 44.9988 37.0732 45.925C36.7215 46.9096 37.5177 47.6089 36.9803 48.4581C35.9824 50.0358 35.0111 51.6255 33.9337 53.1501C33.3684 53.949 32.7872 54.7358 32.2034 55.5187C31.9393 55.873 30.8379 57.8223 30.4531 57.8621C29.174 59.5897 27.9373 61.3837 26.5599 63.0358C26.0345 63.666 22.0192 60.0316 22.0192 60.0316C18.4988 57.3101 17.903 55.1631 17.903 55.1631L14.8232 55.9539C14.8232 55.9539 15.9166 58.7405 18.0623 60.577C20.403 62.5793 23.3952 65.7414 25.0353 66.9741C26.6767 68.2068 26.7908 67.6084 27.4105 67.0139C28.7149 65.7573 29.6729 63.8346 30.6774 62.3418C32.4104 59.7649 34.1247 57.1734 35.7821 54.5461C36.5849 53.2736 37.4328 51.9148 38.1666 50.5587C38.8698 49.2596 39.4563 48.5444 40.7448 47.7894C41.8289 47.1538 42.4353 46.1586 42.629 44.9046C42.767 44.0103 42.6901 43.0881 42.9369 42.2096C42.9767 42.0703 42.9926 41.8752 42.8586 41.8195Z" fill="#EAC2AB"/>
<path d="M15.4086 59.1359C15.0317 55.5293 16.774 49.789 14.6721 46.8618C14.4572 46.5619 14.2249 46.262 13.9118 46.0656C9.95755 43.5843 7.22142 47.4403 5.95818 50.8333C4.86214 53.7751 4.99749 56.482 4.91655 59.5512C4.77987 64.7236 3.57635 69.7553 2.03976 74.6715C1.49174 76.4257 1.34578 78.4679 2.89696 78.7346C4.99218 79.0942 5.44334 76.5133 7.44169 75.8472C9.26754 75.2381 10.7431 75.6123 12.7388 75.7211C13.7287 75.7755 16.9611 75.124 16.7634 73.2836C16.2963 68.9206 15.5943 65.1588 15.5718 62.1201C15.5651 61.1342 15.5134 60.135 15.4086 59.1359Z" fill="url(#paint4_linear)"/>
<path d="M18.6467 54.6854C18.6467 54.6854 14.3674 45.9038 11.6379 48.616C8.90973 51.3283 15.267 60.1842 15.267 60.1842L19.6791 55.666L18.6467 54.6854Z" fill="url(#paint5_linear)"/>
<path d="M18.433 29.3171C19.4534 28.7333 19.7493 27.4143 19.8528 26.2427C19.9656 24.9701 19.9444 23.2504 18.8722 22.3534C18.4582 22.0071 17.9513 21.7921 17.4338 21.6369C14.8981 20.8739 11.8315 21.0862 9.36611 22.0217C6.85158 22.9758 4.98725 25.1532 4.09555 27.6532C3.64705 28.9098 3.42545 30.2486 3.43474 31.5822C3.44403 32.9914 4.07167 34.4577 2.97828 35.6227C3.37105 35.624 3.76382 35.5749 4.14465 35.4767C2.7527 35.835 0.51019 35.912 0.453132 37.905C0.430575 38.6985 0.94675 39.3898 1.38198 40.0546C1.81721 40.7194 2.20202 41.5461 1.89948 42.2812C1.51866 43.2087 0.195708 43.5737 0.0245344 44.5635C-0.178486 45.7392 0.932154 46.2779 1.37933 47.1935C1.94327 48.3479 1.40321 49.6908 1.27317 50.8877C1.15773 51.9492 2.137 52.4375 2.77658 53.0718C4.6303 54.9083 4.60509 56.9969 2.57887 59.0257C2.53774 59.0669 2.55366 59.1465 2.58285 59.1969C2.61337 59.25 2.67972 59.2725 2.73943 59.2885C5.36011 59.9731 8.76236 57.4427 9.36611 54.9176C9.63813 53.7804 8.94415 52.7162 9.24801 51.6241C9.49084 50.751 10.3799 50.2574 11.1468 49.777C12.9276 48.6624 12.5746 45.8228 12.3477 43.7342C12.15 41.9123 12.6224 41.5647 11.5847 40.0546C11.0447 39.2691 10.6214 38.4092 10.2631 37.5255C9.78675 36.3499 9.23209 37.1367 9.27323 35.8695C9.31834 34.4789 10.007 33.1891 11.1336 32.3744C11.7174 31.9524 12.4074 31.6565 13.1173 31.5291C13.8697 31.3938 14.6367 31.2664 15.2218 30.737C15.7685 30.242 16.5236 29.1208 17.3701 29.1964C18.4264 29.2906 19.6379 29.0265 20.1859 28.1203" fill="#4B369D"/>
<defs>
<linearGradient id="paint0_linear" x1="56.0635" y1="27.782" x2="93.5703" y2="27.782" gradientUnits="userSpaceOnUse">
<stop stop-color="#34BCF6"/>
<stop offset="1" stop-color="#63DDF8"/>
</linearGradient>
<linearGradient id="paint1_linear" x1="48.0874" y1="25.8207" x2="58.2079" y2="25.8207" gradientUnits="userSpaceOnUse">
<stop stop-color="#32B3EB"/>
<stop offset="1" stop-color="#5ED1EB"/>
</linearGradient>
<linearGradient id="paint2_linear" x1="5.77832" y1="129.036" x2="20.68" y2="129.036" gradientUnits="userSpaceOnUse">
<stop stop-color="#34BCF6"/>
<stop offset="1" stop-color="#63DDF8"/>
</linearGradient>
<linearGradient id="paint3_linear" x1="19.7969" y1="111.391" x2="34.9187" y2="111.391" gradientUnits="userSpaceOnUse">
<stop stop-color="#34BCF6"/>
<stop offset="1" stop-color="#63DDF8"/>
</linearGradient>
<linearGradient id="paint4_linear" x1="1.65771" y1="62.9306" x2="16.772" y2="62.9306" gradientUnits="userSpaceOnUse">
<stop stop-color="#34BCF6"/>
<stop offset="1" stop-color="#63DDF8"/>
</linearGradient>
<linearGradient id="paint5_linear" x1="10.9575" y1="54.468" x2="19.6791" y2="54.468" gradientUnits="userSpaceOnUse">
<stop stop-color="#32B3EB"/>
<stop offset="1" stop-color="#5ED1EB"/>
</linearGradient>
</defs>
</svg>
