<svg width="20" height="20" viewBox="0 0 20 20" fill="none" xmlns="http://www.w3.org/2000/svg">
<path d="M9.32315 5.28836C9.18053 5.68809 9.03812 6.08721 9.03812 6.50263V6.60316H13.3969V10.9619H13.4976C13.913 10.9619 14.3121 10.8195 14.7118 10.6769C14.991 10.5773 15.2705 10.4776 15.556 10.4262C15.6516 10.409 15.7494 10.4001 15.8485 10.4001C16.4385 10.4001 16.9837 10.7149 17.2787 11.2259C17.5738 11.7368 17.5738 12.3664 17.2787 12.8773C16.9837 13.3883 16.4385 13.7031 15.8485 13.7031C15.7494 13.7031 15.6516 13.6942 15.556 13.677C15.2704 13.6256 14.9909 13.5259 14.7116 13.4263C14.3119 13.2836 13.9128 13.1412 13.4974 13.1412H13.3969V17.5H9.03812V17.3995C9.03812 16.9841 9.18053 16.585 9.32315 16.1852C9.42278 15.906 9.52251 15.6265 9.57389 15.3409C9.59109 15.2453 9.59997 15.1474 9.59997 15.0483C9.59997 14.4583 9.28521 13.9131 8.77424 13.6181C8.26327 13.3231 7.63374 13.3231 7.12277 13.6181C6.6118 13.9131 6.29704 14.4583 6.29704 15.0483C6.29704 15.1474 6.30591 15.2453 6.32311 15.3409C6.37448 15.6264 6.47419 15.9059 6.57379 16.1851C6.71638 16.5848 6.85875 16.9839 6.85875 17.3992V17.5H2.5V6.60316H6.85875V6.50234C6.85875 6.08698 6.71638 5.6879 6.57379 5.28821C6.47419 5.00903 6.37448 4.72954 6.32311 4.44399C6.30592 4.34839 6.29704 4.25056 6.29704 4.15146C6.29704 3.56145 6.6118 3.01626 7.12277 2.72125C7.63374 2.42625 8.26327 2.42625 8.77424 2.72125C9.28521 3.01626 9.59997 3.56145 9.59997 4.15146C9.59997 4.25057 9.59109 4.34841 9.57389 4.44401C9.52251 4.7296 9.42278 5.00913 9.32315 5.28836Z" stroke="#717180" stroke-linecap="round" stroke-linejoin="round"/>
</svg>
