<svg width="15" height="15" viewBox="0 0 15 15" fill="none" xmlns="http://www.w3.org/2000/svg">
<path d="M7.05863 1.31256C7.2184 0.895814 7.7816 0.895815 7.94137 1.31256L9.35687 5.00488C9.4249 5.18235 9.58391 5.30336 9.76606 5.31629L13.5558 5.58547C13.9836 5.61585 14.1576 6.17693 13.8286 6.46487L10.9137 9.01603C10.7736 9.13865 10.7128 9.33445 10.7574 9.51991L11.6841 13.3786C11.7887 13.8141 11.333 14.1609 10.9699 13.9221L7.75289 11.8065C7.59827 11.7048 7.40173 11.7048 7.24711 11.8065L4.03006 13.9221C3.66696 14.1609 3.21132 13.8141 3.31592 13.3786L4.24263 9.51991C4.28717 9.33445 4.22644 9.13865 4.08634 9.01603L1.17138 6.46487C0.842371 6.17693 1.01641 5.61585 1.44416 5.58547L5.23394 5.31629C5.41609 5.30336 5.5751 5.18235 5.64313 5.00488L7.05863 1.31256Z" stroke="#1A1E21" stroke-linecap="square"/>
</svg>
