<svg width="15" height="15" viewBox="0 0 15 15" fill="none" xmlns="http://www.w3.org/2000/svg">
<path d="M2.8793 4.43847C2.74676 4.67203 2.62942 4.91634 2.52864 5.16999L2.45672 5.35101C1.84776 6.88371 1.84776 8.60584 2.45672 10.1385C3.06569 11.6713 4.23373 12.889 5.7039 13.5238C7.17407 14.1587 8.82593 14.1587 10.2961 13.5238C11.7663 12.889 12.9343 11.6713 13.5433 10.1385C14.1522 8.60584 14.1522 6.88371 13.5433 5.35101C12.9343 3.8183 11.7663 2.60057 10.2961 1.9657C10.0385 1.85447 9.77538 1.76273 9.50861 1.69048M7.50367 1.32179C7.55442 1.19406 7.65176 1.09258 7.77427 1.03968C7.89679 0.986774 8.03444 0.986774 8.15696 1.03968C8.27947 1.09258 8.37681 1.19406 8.42755 1.32179C8.4783 1.44951 8.4783 1.59302 8.42755 1.72075C8.37681 1.84848 8.27947 1.94995 8.15696 2.00286C8.03444 2.05576 7.89679 2.05576 7.77427 2.00286C7.65176 1.94995 7.55442 1.84848 7.50367 1.72075C7.45293 1.59302 7.45293 1.44951 7.50367 1.32179ZM3.40762 2.97006L8.19738 7.19534C8.31479 7.29891 8.38251 7.45112 8.38251 7.61146C8.38251 7.91251 8.14841 8.15657 7.85964 8.15657C7.70584 8.15657 7.55984 8.08597 7.46049 7.96357L3.40762 2.97006Z" stroke="#1A1E21" stroke-linecap="round" stroke-linejoin="round"/>
</svg>
